<?xml version="1.0" encoding="UTF-8"?>
<svg width="1440px" height="1534px" viewBox="0 0 1440 1534" version="1.1" xmlns="http://www.w3.org/2000/svg" xmlns:xlink="http://www.w3.org/1999/xlink">
    <!-- Generator: Sketch 52.4 (67378) - http://www.bohemiancoding.com/sketch -->
    <title>BG_elements</title>
    <desc>Created with Sketch.</desc>
    <defs>
        <linearGradient x1="50%" y1="100%" x2="50%" y2="0%" id="linearGradient-1">
            <stop stop-color="#0C3483" offset="0%"></stop>
            <stop stop-color="#6B8CCE" offset="100%"></stop>
        </linearGradient>
        <linearGradient x1="0%" y1="0%" x2="101.999998%" y2="100.999999%" id="linearGradient-2">
            <stop stop-color="#3023AE" offset="0%"></stop>
            <stop stop-color="#C86DD7" offset="100%"></stop>
        </linearGradient>
        <linearGradient x1="0%" y1="0%" x2="40.6687866%" y2="63.1115529%" id="linearGradient-3">
            <stop stop-color="#3023AE" offset="0%"></stop>
            <stop stop-color="#C86DD7" stop-opacity="0" offset="100%"></stop>
        </linearGradient>
    </defs>
    <g id="Page-1" stroke="none" stroke-width="1" fill="none" fill-rule="evenodd">
        <g id="SMM" transform="translate(0.000000, -541.000000)">
            <g id="BG_elements" transform="translate(-441.000000, 505.000000)">
                <path d="M223.864417,256.856155 L623.764844,256.856155 C676.223619,256.856155 719.765316,297.393289 723.509771,349.718256 L756.506453,810.813516 C760.448606,865.901118 718.987028,913.754189 663.899426,917.696343 C657.241819,918.172771 650.553238,917.981451 643.93375,917.125244 L211.036641,861.131567 C161.182531,854.683118 123.864417,812.227161 123.864417,761.957739 L123.864417,356.856155 C123.864417,301.62768 168.635942,256.856155 223.864417,256.856155 Z" id="Rectangle-7" fill="url(#linearGradient-1)" opacity="0.100000001" transform="translate(440.315119, 587.403786) rotate(-330.000000) translate(-440.315119, -587.403786) "></path>
                <rect id="Rectangle-7" stroke="url(#linearGradient-2)" opacity="0.100000001" transform="translate(644.026532, 405.026532) rotate(-330.000000) translate(-644.026532, -405.026532) " x="348.026532" y="109.026532" width="592" height="592" rx="100"></rect>
                <path d="M1516.96142,443.429908 L2438.5887,443.429908 C2493.81718,443.429908 2538.5887,488.201433 2538.5887,543.429908 L2538.5887,1480.12359 C2538.5887,1535.35207 2493.81718,1580.12359 2438.5887,1580.12359 C2433.86275,1580.12359 2429.14274,1579.78857 2424.46416,1579.12105 L1727.33245,1479.65726 C1687.68772,1474.00092 1655.24067,1445.23879 1644.86903,1406.55897 L1420.37347,569.329087 C1406.06975,515.985034 1437.71819,461.145677 1491.06224,446.841956 C1499.50897,444.577043 1508.21631,443.429908 1516.96142,443.429908 Z" id="Rectangle-7" fill="url(#linearGradient-1)" opacity="0.0399999991" transform="translate(1977.762647, 1011.776749) rotate(-330.000000) translate(-1977.762647, -1011.776749) "></path>
                <path d="M1262.82586,683.513026 C1207.87353,683.513026 1163.32586,728.060693 1163.32586,783.013026 L1163.32586,1734.98697 C1163.32586,1789.93931 1207.87353,1834.48697 1262.82586,1834.48697 L2214.79981,1834.48697 C2269.75215,1834.48697 2314.29981,1789.93931 2314.29981,1734.98697 L2314.29981,783.013026 C2314.29981,728.060693 2269.75215,683.513026 2214.79981,683.513026 L1262.82586,683.513026 Z" id="Rectangle-7" stroke="url(#linearGradient-3)" opacity="0.100000001" transform="translate(1738.812839, 1259.000000) rotate(-330.000000) translate(-1738.812839, -1259.000000) "></path>
                <path d="M977.700109,420.192748 L977.700109,420.192748 C1000.62399,420.192748 1019.20747,438.776227 1019.20747,461.700109 L1019.20747,461.700109 C1019.20747,484.623991 1000.62399,503.20747 977.700109,503.20747 L977.700109,503.20747 C954.776227,503.20747 936.192748,484.623991 936.192748,461.700109 L936.192748,461.700109 C936.192748,438.776227 954.776227,420.192748 977.700109,420.192748 Z" id="Rectangle-7" fill="url(#linearGradient-1)" opacity="0.100000001" transform="translate(977.700109, 461.700109) rotate(-330.000000) translate(-977.700109, -461.700109) "></path>
                <path d="M1813.97055,791.021655 L1813.97055,791.021655 C1865.3048,791.021655 1906.91944,832.636291 1906.91944,883.970546 L1906.91944,883.970546 C1906.91944,935.304801 1865.3048,976.919437 1813.97055,976.919437 L1813.97055,976.919437 C1762.63629,976.919437 1721.02166,935.304801 1721.02166,883.970546 L1721.02166,883.970546 C1721.02166,832.636291 1762.63629,791.021655 1813.97055,791.021655 Z" id="Rectangle-7" fill="url(#linearGradient-1)" opacity="0.100000001" transform="translate(1813.970546, 883.970546) rotate(-330.000000) translate(-1813.970546, -883.970546) "></path>
            </g>
        </g>
    </g>
</svg>