<?xml version="1.0" encoding="UTF-8"?>
<svg width="1397px" height="1004px" viewBox="0 0 1397 1004" version="1.1" xmlns="http://www.w3.org/2000/svg" xmlns:xlink="http://www.w3.org/1999/xlink">
    <!-- Generator: Sketch 52.4 (67378) - http://www.bohemiancoding.com/sketch -->
    <title>Plate_bg</title>
    <desc>Created with Sketch.</desc>
    <defs>
        <linearGradient x1="86.4778556%" y1="79.7869691%" x2="38.9168409%" y2="4.43555736%" id="linearGradient-1">
            <stop stop-color="#301E72" offset="0%"></stop>
            <stop stop-color="#3567BE" offset="100%"></stop>
        </linearGradient>
        <path d="M346.003311,0.451545666 L1569.22341,108.581103 C1620.75196,113.136095 1660.30121,156.238042 1660.41775,207.967386 L1661.98419,903.27629 C1662.10861,958.504625 1617.43806,1003.3769 1562.20973,1003.50132 C1558.52096,1003.50963 1554.83457,1003.31383 1551.16744,1002.91482 L89.2326672,843.843987 C34.3282501,837.869923 -5.33763871,788.518164 0.636424801,733.613747 C1.51826358,725.509239 3.38784056,717.542976 6.20353145,709.892318 L243.351766,65.5246869 C258.949646,23.1428878 301.017787,-3.52506062 346.003311,0.451545666 Z" id="path-2"></path>
        <linearGradient x1="86.4704078%" y1="5.58752483%" x2="22.6471242%" y2="75.0198406%" id="linearGradient-4">
            <stop stop-color="#FFFFFF" offset="0%"></stop>
            <stop stop-color="#C86DD7" stop-opacity="0" offset="100%"></stop>
        </linearGradient>
    </defs>
    <g id="Page-1" stroke="none" stroke-width="1" fill="none" fill-rule="evenodd">
        <g id="SMM" transform="translate(0.000000, -2947.000000)">
            <g id="Cases" transform="translate(-265.000000, 2947.000000)">
                <g id="Plate_bg">
                    <mask id="mask-3" fill="white">
                        <use xlink:href="#path-2"></use>
                    </mask>
                    <use id="Rectangle-8" fill="url(#linearGradient-1)" xlink:href="#path-2"></use>
                    <rect id="Rectangle-7" fill="url(#linearGradient-4)" opacity="0.0599999987" mask="url(#mask-3)" transform="translate(394.026532, 155.026532) rotate(-330.000000) translate(-394.026532, -155.026532) " x="97.5265322" y="-141.473468" width="593" height="593" rx="100"></rect>
                    <path d="M1156.82586,449.825865 L2108.79981,449.825865 C2164.02829,449.825865 2208.79981,494.59739 2208.79981,549.825865 L2208.79981,1501.79981 C2208.79981,1557.02829 2164.02829,1601.79981 2108.79981,1601.79981 L1156.82586,1601.79981 C1101.59739,1601.79981 1056.82586,1557.02829 1056.82586,1501.79981 L1056.82586,549.825865 C1056.82586,494.59739 1101.59739,449.825865 1156.82586,449.825865 Z" id="Rectangle-7" fill="url(#linearGradient-4)" opacity="0.100000001" mask="url(#mask-3)" transform="translate(1632.812839, 1025.812839) rotate(-330.000000) translate(-1632.812839, -1025.812839) "></path>
                    <path d="M1558.0696,176.419372 L1682.74309,176.419372 C1737.97156,176.419372 1782.74309,221.190897 1782.74309,276.419372 L1782.74309,401.092856 C1782.74309,456.321331 1737.97156,501.092856 1682.74309,501.092856 L1558.0696,501.092856 C1502.84113,501.092856 1458.0696,456.321331 1458.0696,401.092856 L1458.0696,276.419372 C1458.0696,221.190897 1502.84113,176.419372 1558.0696,176.419372 Z" id="Rectangle-7" fill="url(#linearGradient-4)" opacity="0.100000001" mask="url(#mask-3)" transform="translate(1620.406346, 338.756114) rotate(-330.000000) translate(-1620.406346, -338.756114) "></path>
                    <path d="M745.041668,-14.6246966 L745.041668,-14.6246966 C775.785352,-14.6246966 800.708032,10.2979835 800.708032,41.0416675 L800.708032,41.0416675 C800.708032,71.7853515 775.785352,96.7080317 745.041668,96.7080317 L745.041668,96.7080317 C714.297984,96.7080317 689.375303,71.7853515 689.375303,41.0416675 L689.375303,41.0416675 C689.375303,10.2979835 714.297984,-14.6246966 745.041668,-14.6246966 Z" id="Rectangle-7" fill="url(#linearGradient-4)" opacity="0.100000001" mask="url(#mask-3)" transform="translate(745.041668, 41.041668) rotate(-330.000000) translate(-745.041668, -41.041668) "></path>
                    <path d="M1279.9453,365.945296 L1298.21046,365.945296 C1353.43893,365.945296 1398.21046,410.716821 1398.21046,465.945296 L1398.21046,484.210455 C1398.21046,539.43893 1353.43893,584.210455 1298.21046,584.210455 L1279.9453,584.210455 C1224.71682,584.210455 1179.9453,539.43893 1179.9453,484.210455 L1179.9453,465.945296 C1179.9453,410.716821 1224.71682,365.945296 1279.9453,365.945296 Z" id="Rectangle-7" fill="url(#linearGradient-4)" opacity="0.100000001" mask="url(#mask-3)" transform="translate(1289.077876, 475.077876) rotate(-330.000000) translate(-1289.077876, -475.077876) "></path>
                </g>
            </g>
        </g>
    </g>
</svg>