<?xml version="1.0" encoding="UTF-8"?>
<svg width="1110px" height="269px" viewBox="0 0 1183 269" version="1.1" xmlns="http://www.w3.org/2000/svg" xmlns:xlink="http://www.w3.org/1999/xlink">
    <!-- Generator: Sketch 52.4 (67378) - http://www.bohemiancoding.com/sketch -->
    <title>Plate</title>
    <desc>Created with Sketch.</desc>
    <defs>
        <radialGradient cx="110.485682%" cy="169.029802%" fx="110.485682%" fy="169.029802%" r="473.610267%" gradientTransform="translate(1.104857,1.690298),scale(0.225898,1.000000),rotate(-160.365681),translate(-1.104857,-1.690298)" id="radialGradient-1">
            <stop stop-color="#301E72" offset="0%"></stop>
            <stop stop-color="#3567BE" offset="100%"></stop>
        </radialGradient>
        <path d="M69.0904316,99.0969506 L1144.35043,1.12578663 C1163.60065,-0.628177127 1180.62791,13.5553459 1182.38188,32.8055721 C1182.63332,35.5652526 1182.55614,38.3450301 1182.15194,41.0865056 L1153.0908,238.195621 C1150.55894,255.368151 1135.82329,268.09052 1118.46512,268.09052 L35.084924,268.09052 C15.7549578,268.09052 0.0849240256,252.420486 0.0849240256,233.09052 C0.0849240256,228.893122 0.839938806,224.72995 2.31390363,220.799864 L39.4952435,121.661912 C44.2125284,109.084045 55.7124733,100.315869 69.0904316,99.0969506 Z" id="path-2"></path>
        <radialGradient cx="110.485682%" cy="169.029802%" fx="110.485682%" fy="169.029802%" r="211.879304%" gradientTransform="translate(1.104857,1.690298),scale(1.000000,0.853833),rotate(-118.397579),translate(-1.104857,-1.690298)" id="radialGradient-4">
            <stop stop-color="#301E72" offset="0%"></stop>
            <stop stop-color="#3567BE" offset="100%"></stop>
        </radialGradient>
    </defs>
    <g id="Page-1" stroke="none" stroke-width="1" fill="none" fill-rule="evenodd">
        <g id="SMM" transform="translate(-128.000000, -1786.000000)">
            <g id="CTA" transform="translate(128.000000, 1786.000000)">
                <g id="Plate">
                    <mask id="mask-3" fill="white">
                        <use xlink:href="#path-2"></use>
                    </mask>
                    <use id="Rectangle-11" fill="url(#radialGradient-1)" xlink:href="#path-2"></use>
                    <path d="M402.928926,146.340206 L1478.18892,48.3690418 C1497.43915,46.615078 1514.46641,60.7986011 1516.22037,80.0488272 C1516.47182,82.8085078 1516.39463,85.5882852 1515.99044,88.3297608 L1486.92929,285.438876 C1484.39743,302.611406 1469.66178,315.333775 1452.30361,315.333775 L368.923418,315.333775 C349.593452,315.333775 333.923418,299.663741 333.923418,280.333775 C333.923418,276.136377 334.678433,271.973205 336.152398,268.043119 L373.333738,168.905168 C378.051023,156.3273 389.550968,147.559124 402.928926,146.340206 Z" id="Rectangle-11" fill="url(#radialGradient-1)" opacity="0.5" mask="url(#mask-3)"></path>
                    <path d="M544.296238,287.926601 L1068.9014,33.5158291 C1086.29404,25.0811536 1107.23122,32.3430167 1115.66589,49.7356543 C1118.11731,54.7905689 1119.31588,60.3613152 1119.16031,65.9771317 L1100.88224,725.823198 C1100.35745,744.76845 1084.84818,759.854052 1065.89566,759.854052 L531,759.854052 C511.670034,759.854052 496,744.184018 496,724.854052 C496,724.033244 496.028874,723.212691 496.086568,722.393913 L524.655138,316.958619 C525.535564,304.463914 533.025928,293.392213 544.296238,287.926601 Z" id="Rectangle-11" fill="url(#radialGradient-4)" opacity="0.5" mask="url(#mask-3)"></path>
                </g>
            </g>
        </g>
    </g>
</svg>