<?xml version="1.0" encoding="UTF-8"?>
<svg width="60px" height="60px" viewBox="0 0 60 60" version="1.1" xmlns="http://www.w3.org/2000/svg" xmlns:xlink="http://www.w3.org/1999/xlink">
    <!-- Generator: Sketch 52.4 (67378) - http://www.bohemiancoding.com/sketch -->
    <title>Next</title>
    <desc>Created with Sketch.</desc>
    <defs>
        <circle id="path-1" cx="20" cy="20" r="20"></circle>
        <filter x="-40.0%" y="-35.0%" width="180.0%" height="180.0%" filterUnits="objectBoundingBox" id="filter-2">
            <feOffset dx="0" dy="2" in="SourceAlpha" result="shadowOffsetOuter1"></feOffset>
            <feGaussianBlur stdDeviation="5" in="shadowOffsetOuter1" result="shadowBlurOuter1"></feGaussianBlur>
            <feColorMatrix values="0 0 0 0 0.117647059   0 0 0 0 0.0352941176   0 0 0 0 0.254901961  0 0 0 0.2 0" type="matrix" in="shadowBlurOuter1"></feColorMatrix>
        </filter>
    </defs>
    <g id="Page-1" stroke="none" stroke-width="1" fill="none" fill-rule="evenodd">
        <g id="SMM" transform="translate(-185.000000, -3566.000000)">
            <g id="Cases" transform="translate(-265.000000, 2947.000000)">
                <g id="Next" transform="translate(480.000000, 647.000000) scale(-1, 1) translate(-480.000000, -647.000000) translate(460.000000, 627.000000)">
                    <g id="Oval-5">
                        <use fill="black" fill-opacity="1" filter="url(#filter-2)" xlink:href="#path-1"></use>
                        <use fill="#FFFFFF" fill-rule="evenodd" xlink:href="#path-1"></use>
                    </g>
                    <g id="down-arrow" opacity="0.300000012" transform="translate(20.890894, 19.480902) rotate(-90.000000) translate(-20.890894, -19.480902) translate(12.890894, 14.480902)" fill="#1E0941" fill-rule="nonzero">
                        <polygon id="Shape" points="0.45248 1.4512 1.35744 0.54624 7.94496 7.13344 14.53248 0.54624 15.43744 1.4512 7.94496 8.944"></polygon>
                        <path d="M7.94496,9.39648 L0,1.45152 L1.35744,0.09408 L7.94496,6.68128 L14.53248,0.09376 L15.88992,1.4512 L7.94496,9.39648 Z M0.90496,1.45152 L7.94496,8.49152 L14.98496,1.4512 L14.53248,0.99872 L7.94496,7.58624 L1.35744,0.99904 L0.90496,1.45152 Z" id="Shape"></path>
                    </g>
                </g>
            </g>
        </g>
    </g>
</svg>