<?xml version="1.0" encoding="UTF-8"?>
<svg width="70px" height="78px" viewBox="0 0 70 78" version="1.1" xmlns="http://www.w3.org/2000/svg" xmlns:xlink="http://www.w3.org/1999/xlink">
    <!-- Generator: Sketch 52.2 (67145) - http://www.bohemiancoding.com/sketch -->
    <title>analytics</title>
    <desc>Created with Sketch.</desc>
    <g id="Page-1" stroke="none" stroke-width="1" fill="none" fill-rule="evenodd">
        <g id="SMM" transform="translate(-269.000000, -1231.000000)">
            <g id="Why" transform="translate(148.000000, 1086.000000)">
                <g id="analytics" transform="translate(121.000000, 145.000000)">
                    <circle id="Oval-3" fill="#F99229" cx="35" cy="39" r="10"></circle>
                    <circle id="Oval-3" fill="#F99229" cx="35" cy="59" r="7"></circle>
                    <circle id="Oval-3" fill="#F99229" cx="17" cy="29" r="7"></circle>
                    <circle id="Oval-3" fill="#F99229" cx="53" cy="29" r="7"></circle>
                    <path d="M69.8587879,57.2424242 C69.8624242,57.2298485 69.8654545,57.2172727 69.8686364,57.2045455 C69.8790909,57.1633333 69.8872727,57.1221212 69.8936364,57.0806061 C69.8951515,57.0704545 69.8971212,57.0604545 69.8984848,57.050303 C69.9051515,56.9975758 69.9089394,56.944697 69.9089394,56.8921212 C69.9089394,56.8910606 69.9090909,56.89 69.9090909,56.8887879 L69.9090909,20.6868182 C69.9090909,20.6857576 69.9089394,20.684697 69.9089394,20.6834848 C69.9087879,20.6307576 69.905,20.5780303 69.8984848,20.525303 C69.8972727,20.5151515 69.8951515,20.5051515 69.8936364,20.4948485 C69.8874242,20.4533333 69.8790909,20.4121212 69.8687879,20.3709091 C69.8656061,20.3581818 69.8624242,20.3456061 69.8589394,20.3330303 C69.8469697,20.2910606 69.8328788,20.2495455 69.8163636,20.2083333 C69.8133333,20.2009091 69.8110606,20.1931818 69.8078788,20.1857576 C69.7898485,20.1428788 69.7695455,20.1004545 69.7465152,20.0587879 C69.7445455,20.0551515 69.7419697,20.0519697 69.74,20.0483333 C69.7336364,20.0371212 69.7262121,20.0266667 69.7195455,20.0156061 C69.6990909,19.9818182 69.6774242,19.9492424 69.6543939,19.9180303 C69.6454545,19.9059091 69.6362121,19.8942424 69.6269697,19.8825758 C69.6016667,19.8506061 69.575,19.820303 69.5472727,19.7913636 C69.539697,19.7834848 69.5325758,19.775303 69.524697,19.7675758 C69.4869697,19.730303 69.4475758,19.6951515 69.4060606,19.6631818 C69.4042424,19.6618182 69.4022727,19.6606061 69.4004545,19.6592424 C69.3610606,19.6290909 69.319697,19.6021212 69.2774242,19.5768182 C69.2722727,19.5737879 69.2677273,19.5698485 69.2624242,19.5668182 L35.6462121,0.172878788 C35.6430303,0.171060606 35.6395455,0.169848485 35.6363636,0.168030303 C35.5904545,0.141969697 35.5431818,0.118484848 35.4940909,0.098030303 C35.4909091,0.0966666667 35.4875758,0.0957575758 35.4843939,0.0945454545 C35.4401515,0.0766666667 35.394697,0.0616666667 35.3483333,0.0486363636 C35.3356061,0.0451515152 35.3228788,0.041969697 35.31,0.0387878788 C35.2716667,0.0293939394 35.2328788,0.0218181818 35.1933333,0.0157575758 C35.1801515,0.0137878788 35.1671212,0.0113636364 35.1539394,0.0096969697 C35.1031818,0.00393939394 35.0521212,0 35,0 C34.9478788,0 34.8968182,0.00393939394 34.8462121,0.01 C34.8330303,0.0115151515 34.82,0.0140909091 34.8068182,0.0160606061 C34.7672727,0.021969697 34.7283333,0.0295454545 34.69,0.0390909091 C34.6772727,0.0422727273 34.6645455,0.0453030303 34.6518182,0.0489393939 C34.605303,0.061969697 34.5598485,0.076969697 34.5156061,0.0948484848 C34.5124242,0.0960606061 34.5092424,0.096969697 34.5060606,0.0983333333 C34.4569697,0.118636364 34.409697,0.142272727 34.3637879,0.168333333 C34.3606061,0.170151515 34.3571212,0.171363636 34.3539394,0.173181818 L0.737727273,19.5671212 C0.732424242,19.5701515 0.727878788,19.5740909 0.722727273,19.5771212 C0.68030303,19.6022727 0.639090909,19.6293939 0.59969697,19.6595455 C0.597878788,19.6609091 0.595909091,19.6621212 0.594090909,19.6634848 C0.552575758,19.6954545 0.513181818,19.7306061 0.475454545,19.7678788 C0.467727273,19.7756061 0.460454545,19.7837879 0.452878788,19.7916667 C0.425,19.8206061 0.398484848,19.8509091 0.373181818,19.8828788 C0.363787879,19.894697 0.354545455,19.9063636 0.345757576,19.9183333 C0.322727273,19.9495455 0.301212121,19.9821212 0.280606061,20.0159091 C0.273939394,20.0269697 0.266515152,20.0374242 0.260151515,20.0486364 C0.258181818,20.0522727 0.255606061,20.0554545 0.253636364,20.0590909 C0.230454545,20.1007576 0.21030303,20.1431818 0.192272727,20.1860606 C0.189090909,20.1934848 0.186818182,20.2012121 0.183787879,20.2086364 C0.167272727,20.2498485 0.153181818,20.2913636 0.141212121,20.3333333 C0.137575758,20.3459091 0.134545455,20.3584848 0.131363636,20.3712121 C0.120909091,20.4122727 0.112727273,20.4536364 0.106515152,20.4951515 C0.105,20.505303 0.103030303,20.515303 0.101666667,20.5256061 C0.095,20.5783333 0.0912121212,20.6310606 0.0912121212,20.6837879 C0.0912121212,20.6848485 0.0910606061,20.6859091 0.0910606061,20.6871212 L0.0910606061,56.8890909 C0.0910606061,56.8901515 0.0912121212,56.8912121 0.0912121212,56.8924242 C0.0913636364,56.9451515 0.0951515152,56.9978788 0.101666667,57.0506061 C0.102878788,57.0607576 0.104848485,57.0707576 0.106515152,57.0809091 C0.112727273,57.1224242 0.121060606,57.1637879 0.131515152,57.2048485 C0.13469697,57.2175758 0.137878788,57.2301515 0.141363636,57.2427273 C0.153333333,57.284697 0.167424242,57.3262121 0.183939394,57.3674242 C0.186969697,57.3748485 0.189242424,57.3825758 0.192272727,57.39 C0.21030303,57.4328788 0.230606061,57.475303 0.253636364,57.5169697 C0.255606061,57.5206061 0.258181818,57.5237879 0.260151515,57.5274242 C0.266515152,57.5386364 0.273939394,57.5490909 0.280606061,57.5601515 C0.301060606,57.5939394 0.322727273,57.6265152 0.345757576,57.6577273 C0.35469697,57.669697 0.363939394,57.6815152 0.373181818,57.6931818 C0.398484848,57.7251515 0.425151515,57.7554545 0.453030303,57.7845455 C0.460606061,57.7924242 0.467727273,57.8006061 0.475454545,57.8081818 C0.513181818,57.8454545 0.552575758,57.8806061 0.594090909,57.9125758 C0.596060606,57.9140909 0.598030303,57.915303 0.6,57.9166667 C0.639393939,57.9466667 0.680454545,57.9736364 0.722727273,57.9987879 C0.728030303,58.0019697 0.732575758,58.0057576 0.737878788,58.0089394 L34.3540909,77.4028788 C34.3572727,77.404697 34.3607576,77.4059091 34.3640909,77.4077273 C34.4098485,77.4336364 34.4571212,77.4572727 34.5062121,77.4775758 C34.5093939,77.4789394 34.5128788,77.4798485 34.5160606,77.4812121 C34.5601515,77.4990909 34.6056061,77.5140909 34.6518182,77.5269697 C34.664697,77.5306061 34.6774242,77.5336364 34.690303,77.5368182 C34.7284848,77.5462121 34.7672727,77.5537879 34.8068182,77.559697 C34.8201515,77.5616667 34.8331818,77.5640909 34.8465152,77.5657576 C34.8968182,77.5716667 34.9475758,77.5756061 34.9995455,77.5756061 C35,77.5756061 35.0004545,77.5756061 35.0009091,77.5756061 C35.0527273,77.5756061 35.1036364,77.5716667 35.1539394,77.5657576 C35.1672727,77.5642424 35.1804545,77.5616667 35.1937879,77.559697 C35.2331818,77.5537879 35.2719697,77.5462121 35.3101515,77.5368182 C35.3230303,77.5336364 35.3359091,77.5304545 35.3487879,77.5269697 C35.395,77.5140909 35.4404545,77.4990909 35.4843939,77.4812121 C35.4877273,77.4798485 35.4910606,77.4789394 35.4943939,77.4775758 C35.5434848,77.4572727 35.5906061,77.4336364 35.6365152,77.4077273 C35.639697,77.4059091 35.6431818,77.404697 35.6465152,77.4028788 L69.2627273,58.0089394 C69.2680303,58.0059091 69.2725758,58.0019697 69.2778788,57.9987879 C69.3201515,57.9736364 69.3612121,57.9466667 69.4006061,57.9166667 C69.4025758,57.9151515 69.4045455,57.9139394 69.4065152,57.9125758 C69.4480303,57.8806061 69.4874242,57.8454545 69.5251515,57.8081818 C69.5328788,57.8004545 69.54,57.7924242 69.5475758,57.7845455 C69.5754545,57.7556061 69.6019697,57.7251515 69.6274242,57.6931818 C69.6368182,57.6815152 69.6459091,57.669697 69.6548485,57.6577273 C69.6778788,57.6265152 69.6995455,57.5937879 69.72,57.5601515 C69.7266667,57.5490909 69.7340909,57.5386364 69.7404545,57.5274242 C69.7424242,57.5237879 69.745,57.5206061 69.7469697,57.5169697 C69.7701515,57.475303 69.790303,57.4328788 69.8083333,57.39 C69.8115152,57.3825758 69.8137879,57.3748485 69.8166667,57.3674242 C69.8327273,57.3260606 69.8468182,57.2843939 69.8587879,57.2424242 Z M2.67681818,22.8842424 L11.8080303,27.9571212 C11.4943939,30.029697 12.4684848,32.1721212 14.4084848,33.2507576 C16.4724242,34.3995455 18.9821212,33.9828788 20.574697,32.3924242 L23.3818182,33.9234848 C23.3710606,33.9907576 23.3637879,34.0587879 23.3637879,34.1281818 L23.3637879,43.4475758 C23.3637879,43.5169697 23.3710606,43.5851515 23.3818182,43.6522727 L20.5745455,45.1834848 C18.9819697,43.5931818 16.4722727,43.1765152 14.4078788,44.3256061 C12.4683333,45.4037879 11.4943939,47.5462121 11.8081818,49.6184848 L2.67681818,54.6915152 L2.67681818,22.8842424 Z M57.1692424,25.5672727 C55.6333333,23.575303 52.829697,22.9521212 50.5636364,24.2118182 C48.4174242,25.4072727 47.4540909,27.9024242 48.1089394,30.1648485 L44.4859091,32.1410606 L36.2927273,27.414697 L36.2927273,23.11 C38.5234848,22.5359091 40.1715152,20.5112121 40.1715152,18.1012121 C40.1715152,15.6912121 38.5234848,13.6665152 36.2927273,13.0924242 L36.2927273,3.53181818 L65.9918182,20.6659091 L57.1692424,25.5672727 Z M51.8210606,26.4713636 C53.0687879,25.7777273 54.6434848,26.2263636 55.3369697,27.4737879 C56.0319697,28.7222727 55.5830303,30.2969697 54.3351515,30.9906061 C53.0866667,31.6854545 51.5130303,31.2368182 50.8178788,29.9881818 C50.1236364,28.7409091 50.5727273,27.1666667 51.8210606,26.4713636 Z M35,62.0606061 C33.5716667,62.0606061 32.4140909,60.9030303 32.4140909,59.474697 C32.4140909,58.0463636 33.5716667,56.8887879 35,56.8887879 C36.4283333,56.8887879 37.5859091,58.0463636 37.5859091,59.474697 C37.5859091,60.9030303 36.4283333,62.0606061 35,62.0606061 Z M35,15.5151515 C36.4283333,15.5151515 37.5859091,16.6727273 37.5859091,18.1010606 C37.5859091,19.5293939 36.4283333,20.6869697 35,20.6869697 C33.5716667,20.6869697 32.4140909,19.5293939 32.4140909,18.1010606 C32.4140909,16.6727273 33.5716667,15.5151515 35,15.5151515 Z M36.2928788,30.3998485 L41.8260606,33.5918182 L36.2928788,36.61 L36.2928788,30.3998485 Z M33.7071212,36.6098485 L28.1739394,33.5916667 L33.7071212,30.399697 L33.7071212,36.6098485 Z M32.3,38.7878788 L25.9495455,42.2518182 L25.9495455,35.3240909 L32.3,38.7878788 Z M33.7071212,40.9659091 L33.7071212,47.1760606 L28.1739394,43.9840909 L33.7071212,40.9659091 Z M36.2928788,40.9659091 L41.8260606,43.9840909 L36.2928788,47.1760606 L36.2928788,40.9659091 Z M37.7,38.7878788 L44.0504545,35.3239394 L44.0504545,42.2516667 L37.7,38.7878788 Z M33.7071212,13.0922727 C31.4763636,13.6663636 29.8283333,15.6910606 29.8283333,18.1010606 C29.8283333,20.5110606 31.4763636,22.5357576 33.7071212,23.1098485 L33.7071212,27.4145455 L25.5139394,32.1409091 L21.8909091,30.164697 C22.5457576,27.9022727 21.5827273,25.4072727 19.4372727,24.2122727 C17.1706061,22.9521212 14.3669697,23.5751515 12.8307576,25.5672727 L4.00787879,20.6656061 L33.7071212,3.53151515 L33.7071212,13.0922727 Z M19.1821212,29.9881818 C18.4871212,31.2368182 16.9133333,31.6856061 15.6654545,30.9909091 C14.4169697,30.2968182 13.9680303,28.7222727 14.6627273,27.4742424 C15.3565152,26.2262121 16.9312121,25.7775758 18.18,26.4718182 C19.4272727,27.1666667 19.8763636,28.7409091 19.1821212,29.9881818 Z M18.1789394,51.104697 C16.9310606,51.7984848 15.3566667,51.3495455 14.6631818,50.1013636 C13.9681818,48.8534848 14.4169697,47.2790909 15.6648485,46.5854545 C16.9133333,45.8906061 18.4869697,46.3392424 19.1821212,47.5878788 C19.8763636,48.8351515 19.4272727,50.4093939 18.1789394,51.104697 Z M12.8310606,52.0083333 C14.3665152,54.0006061 17.1701515,54.6240909 19.4363636,53.3642424 C21.5827273,52.1686364 22.5459091,49.6734848 21.8909091,47.4110606 L25.5139394,45.4348485 L33.7071212,50.1612121 L33.7071212,54.4659091 C31.4763636,55.04 29.8283333,57.064697 29.8283333,59.474697 C29.8283333,61.884697 31.4763636,63.9093939 33.7071212,64.4834848 L33.7071212,74.0440909 L4.00787879,56.9101515 L12.8310606,52.0083333 Z M36.2928788,64.4834848 C38.5236364,63.9093939 40.1716667,61.884697 40.1716667,59.474697 C40.1716667,57.064697 38.5236364,55.04 36.2928788,54.4659091 L36.2928788,50.1612121 L44.4860606,45.4348485 L48.1090909,47.4110606 C47.4540909,49.6734848 48.4172727,52.1686364 50.5627273,53.3637879 C52.8293939,54.6239394 55.6327273,54.0009091 57.1687879,52.0083333 L65.9921212,56.9101515 L36.2928788,74.0442424 L36.2928788,64.4834848 Z M50.8178788,47.5878788 C51.5128788,46.3392424 53.0866667,45.8904545 54.3345455,46.5851515 C55.5830303,47.2792424 56.0318182,48.8536364 55.3375758,50.1001515 C54.6433333,51.349697 53.0689394,51.7984848 51.8201515,51.1042424 C50.5727273,50.4093939 50.1236364,48.8351515 50.8178788,47.5878788 Z M58.1921212,49.6186364 C58.5059091,47.5466667 57.5318182,45.4039394 55.5916667,44.325303 C53.5277273,43.1765152 51.0181818,43.5931818 49.4256061,45.1834848 L46.6183333,43.6522727 C46.6290909,43.585 46.6363636,43.5169697 46.6363636,43.4475758 L46.6363636,34.1281818 C46.6363636,34.0587879 46.6290909,33.9906061 46.6183333,33.9234848 L49.4254545,32.3924242 C51.0180303,33.9828788 53.5278788,34.399697 55.5922727,33.2504545 C57.5316667,32.1722727 58.5056061,30.03 58.1919697,27.9572727 L67.3233333,22.8842424 L67.3233333,54.6915152 L58.1921212,49.6186364 Z" id="Shape" fill="#000000" fill-rule="nonzero"></path>
                </g>
            </g>
        </g>
    </g>
</svg>