<?xml version="1.0" encoding="UTF-8"?>
<svg width="70px" height="70px" viewBox="0 0 70 70" version="1.1" xmlns="http://www.w3.org/2000/svg" xmlns:xlink="http://www.w3.org/1999/xlink">
    <!-- Generator: Sketch 52.2 (67145) - http://www.bohemiancoding.com/sketch -->
    <title>employee</title>
    <desc>Created with Sketch.</desc>
    <g id="Page-1" stroke="none" stroke-width="1" fill="none" fill-rule="evenodd">
        <g id="SMM" transform="translate(-1051.000000, -1231.000000)" fill-rule="nonzero">
            <g id="Why" transform="translate(148.000000, 1086.000000)">
                <g id="employee" transform="translate(903.000000, 145.000000)">
                    <path d="M66.5271821,22.5515464 L55.2514089,22.5515464 L55.2514089,16.056701 C53.122543,14.347354 51.8685567,11.7607216 51.8685567,9.02061856 C51.8685567,4.04676976 55.9153265,0 60.8891753,0 C65.8630241,0 69.9097938,4.04676976 69.9097938,9.02061856 C69.9097938,11.7616838 68.6560481,14.3483162 66.5269416,16.056701 L66.5271821,22.5515464 Z" id="Shape" fill="#F99229"></path>
                    <path d="M9.02061856,18.0412371 C4.04676976,18.0412371 0,13.9944674 0,9.02061856 C0,4.04676976 4.04676976,0 9.02061856,0 C13.9944674,0 18.0412371,4.04701031 18.0412371,9.02061856 C18.0412371,13.9942268 13.9944674,18.0412371 9.02061856,18.0412371 Z" id="Shape" fill="#F99229"></path>
                    <path d="M62.0168729,16.9137801 L62.0168729,12.1958763 C63.325945,11.7289691 64.2720275,10.4886942 64.2720275,9.02061856 C64.2720275,7.15563574 62.7543986,5.63800687 60.8891753,5.63800687 C59.0241924,5.63800687 57.506323,7.15563574 57.506323,9.02061856 C57.506323,10.4886942 58.4524055,11.7289691 59.7614777,12.1958763 L59.7614777,16.9137801 L54.1237113,16.9137801 L54.1237113,19.1689347 L67.6546392,19.1689347 L67.6546392,16.9137801 L62.0168729,16.9137801 Z M60.8891753,7.89316151 C61.5105155,7.89316151 62.0168729,8.39831615 62.0168729,9.02085911 C62.0168729,9.64340206 61.5105155,10.1485567 60.8891753,10.1485567 C60.2678351,10.1485567 59.7614777,9.64340206 59.7614777,9.02085911 C59.7617182,8.39831615 60.2680756,7.89316151 60.8891753,7.89316151 Z" id="Shape" fill="#333333"></path>
                    <path d="M54.1621993,49.5537457 L47.8184192,48.4510653 L42.9145704,44.7593471 C45.5293471,42.8457732 47.5016151,40.2117526 48.6054983,37.196701 C51.3477663,37.1233333 53.5601031,34.6348454 53.5601031,31.5724055 C53.5601031,29.9126117 52.8993127,28.4332302 51.8687973,27.401512 L51.8687973,25.9346392 C51.8687973,16.6085223 44.2813746,9.02085911 34.9550172,9.02085911 C25.6286598,9.02085911 18.0412371,16.6080412 18.0412371,25.9343986 L18.0412371,28.0721649 C17.3465292,29.0374914 16.9135395,30.2438488 16.9135395,31.5721649 C16.9135395,34.4113746 18.8191753,36.7444674 21.2807216,37.1310309 C22.3665636,40.1350172 24.3116495,42.7632646 26.8961168,44.6835739 L22.0791065,48.4529897 L15.7478351,49.5547079 C11.1528522,50.354055 7.45223368,53.9635052 6.53766323,58.5358763 L6.53766323,58.5358763 C5.50751032,63.6853339 8.84686662,68.6948981 13.9963243,69.725051 C14.6104748,69.8479123 15.2352619,69.9097938 15.8615811,69.9097938 L28.5301718,69.9097938 L33.9774227,69.9097938 L35.9314089,69.9097938 L41.3786598,69.9097938 L65.6474914,69.9097938 L63.3721306,58.5346735 C62.4578007,53.962543 58.7559794,50.3530928 54.1621993,49.5537457 Z M35.0519588,67.6546392 L34.8580756,67.6546392 L29.5123368,46.2736082 C29.7997938,46.4133677 30.0874914,46.5521649 30.3838488,46.6760481 C31.8372509,47.281512 33.3955326,47.5836426 34.9550172,47.5836426 C36.513299,47.5836426 38.0739863,47.2803093 39.5249828,46.6748454 C39.822543,46.5507216 40.1102405,46.4121649 40.3964948,46.2724055 L35.0519588,67.6546392 Z M49.2797595,34.8015464 C49.4928866,33.7416838 49.6136426,32.6534364 49.6136426,31.5428179 L49.6136426,28.4770103 C50.6071134,29.0002062 51.3049485,30.1897251 51.3049485,31.5733677 C51.3049485,33.1047079 50.4457045,34.3865979 49.2797595,34.8015464 Z M34.9550172,11.2757732 C43.0374914,11.2757732 49.6136426,17.8519244 49.6136426,25.9343986 L48.485945,25.9343986 C43.9282474,25.9343986 41.5706186,23.0939863 41.4758419,22.9778007 L40.9480756,22.3148454 L40.1643643,22.6362199 C40.0830584,22.6689347 32.0164605,25.9343986 21.4240893,25.9343986 L20.2963918,25.9343986 C20.2963918,17.8519244 26.872543,11.2757732 34.9550172,11.2757732 Z M19.1689347,31.5721649 C19.1689347,30.4716495 19.6165979,29.5007904 20.2966323,28.8828179 L20.2966323,31.5416151 C20.2966323,32.5406186 20.3969416,33.5206186 20.5694158,34.4777663 C19.7359107,33.8905842 19.1689347,32.8148454 19.1689347,31.5721649 Z M22.5515464,31.5428179 L22.5515464,28.1782474 C31.3229553,28 38.1122337,25.7968041 40.2918557,25.0017869 C41.3190034,25.9861168 43.6881787,27.8183849 47.358488,28.1409622 L47.358488,31.5428179 C47.358488,37.2686254 43.9431615,42.391134 38.6580412,44.5945704 C36.3047423,45.5743299 33.6064948,45.5743299 31.2531959,44.5945704 C25.9671134,42.3913746 22.5515464,37.2686254 22.5515464,31.5428179 Z M8.74879725,58.9780069 C9.48175258,55.3110653 12.4506186,52.417732 16.1343986,51.7761856 L20.9886942,50.9316151 L19.897079,54.8679725 L22.7002062,55.7620962 L19.9319588,58.5303436 L26.8258763,67.6546392 L15.8619343,67.6546392 C11.855658,67.6546392 8.60792938,64.4069106 8.60792938,60.4006343 C8.60792938,59.9229437 8.65511441,59.4464211 8.74879725,58.9780069 Z M22.9157388,58.7376976 L26.9129553,54.7404811 L22.6506529,53.3794502 L23.5402062,50.1748454 L27.4077663,47.1472852 L32.5336426,67.6546392 L29.6525773,67.6546392 L22.9157388,58.7376976 Z M37.3759107,67.6546392 L42.4770103,47.2533677 L46.3727148,50.1861512 L47.2589003,53.3794502 L42.9965979,54.7404811 L46.9938144,58.7376976 L40.2576976,67.6546392 L37.3759107,67.6546392 Z M43.083677,67.6546392 L49.9775945,58.5303436 L47.2093471,55.7620962 L50.0124742,54.8679725 L48.9208591,50.9316151 L53.7751546,51.7761856 C57.4601375,52.4167698 60.4278007,55.3110653 61.160756,58.9780069 L62.8960825,67.6546392 L43.083677,67.6546392 Z" id="Shape" fill="#333333"></path>
                    <rect id="Rectangle-path" fill="#333333" x="59.7617182" y="24.806701" width="2.25515464" height="20.2963918"></rect>
                    <rect id="Rectangle-path" fill="#333333" x="59.7617182" y="47.3582474" width="2.25515464" height="2.25515464"></rect>
                    <polygon id="Rectangle-path" fill="#333333" points="64.2720275 24.806701 66.5271821 24.806701 66.5271821 39.4653265 64.2720275 39.4653265"></polygon>
                    <polygon id="Rectangle-path" fill="#333333" points="64.2720275 41.7204811 66.5271821 41.7204811 66.5271821 46.2307904 64.2720275 46.2307904"></polygon>
                    <rect id="Rectangle-path" fill="#333333" x="55.2514089" y="24.806701" width="2.25515464" height="11.2757732"></rect>
                    <polygon id="Rectangle-path" fill="#333333" points="55.2514089 38.3376289 57.5065636 38.3376289 57.5065636 41.7204811 55.2514089 41.7204811"></polygon>
                    <path d="M10.1483162,12.4034708 L7.89316151,12.4034708 C7.27182131,12.4034708 6.76546392,11.8983162 6.76546392,11.2757732 L4.51030928,11.2757732 C4.51030928,13.140756 6.02793814,14.6586254 7.89316151,14.6586254 L7.89316151,16.9137801 L10.1483162,16.9137801 L10.1483162,14.6586254 C12.013299,14.6586254 13.5311684,13.1409966 13.5311684,11.2757732 C13.5311684,9.41054983 12.0135395,7.89292096 10.1483162,7.89292096 L7.89316151,7.89292096 C7.27182131,7.89292096 6.76546392,7.38776632 6.76546392,6.76546392 C6.76546392,6.14316151 7.27182131,5.63776632 7.89316151,5.63776632 L10.1483162,5.63776632 C10.7696564,5.63776632 11.2760137,6.14292096 11.2760137,6.76546392 L13.5311684,6.76546392 C13.5311684,4.9004811 12.0135395,3.38261168 10.1483162,3.38261168 L10.1483162,1.12769759 L7.89316151,1.12769759 L7.89316151,3.38285223 C6.02817869,3.38285223 4.51030928,4.9004811 4.51030928,6.76570447 C4.51030928,8.63092784 6.02793814,10.1483162 7.89316151,10.1483162 L10.1483162,10.1483162 C10.7696564,10.1483162 11.2760137,10.6534708 11.2760137,11.2760137 C11.2757732,11.8983162 10.7694158,12.4034708 10.1483162,12.4034708 Z" id="Shape" fill="#333333"></path>
                    <rect id="Rectangle-path" fill="#333333" x="7.89316151" y="20.2963918" width="2.25515464" height="20.2963918"></rect>
                    <rect id="Rectangle-path" fill="#333333" x="7.89316151" y="42.8479381" width="2.25515464" height="2.25515464"></rect>
                    <polygon id="Rectangle-path" fill="#333333" points="12.4034708 19.1689347 14.6586254 19.1689347 14.6586254 30.4447079 12.4034708 30.4447079"></polygon>
                    <polygon id="Rectangle-path" fill="#333333" points="12.4034708 32.6998625 14.6586254 32.6998625 14.6586254 37.2101718 12.4034708 37.2101718"></polygon>
                    <polygon id="Rectangle-path" fill="#333333" points="3.38285223 19.1689347 5.63800687 19.1689347 5.63800687 32.6998625 3.38285223 32.6998625"></polygon>
                    <polygon id="Rectangle-path" fill="#333333" points="3.38285223 34.9550172 5.63800687 34.9550172 5.63800687 38.3378694 3.38285223 38.3378694"></polygon>
                </g>
            </g>
        </g>
    </g>
</svg>