<?xml version="1.0" encoding="UTF-8"?>
<svg width="17px" height="17px" viewBox="0 0 17 17" version="1.1" xmlns="http://www.w3.org/2000/svg" xmlns:xlink="http://www.w3.org/1999/xlink">
    <!-- Generator: Sketch 52.4 (67378) - http://www.bohemiancoding.com/sketch -->
    <title>Shape</title>
    <desc>Created with Sketch.</desc>
    <g id="Page-1" stroke="none" stroke-width="1" fill="none" fill-rule="evenodd">
        <g id="SMM" transform="translate(-786.000000, -9168.000000)" fill="#FFFFFF">
            <path d="M800.709158,9168 L788.290801,9168 C787.025652,9168 786,9169.0256 786,9170.29078 L786,9182.70913 C786,9183.97431 787.02561,9184.99992 788.290801,9184.99992 L794.415475,9184.99992 L794.425913,9178.92507 L792.847658,9178.92507 C792.642553,9178.92507 792.476082,9178.75922 792.475291,9178.55412 L792.467723,9176.59594 C792.466932,9176.38971 792.633903,9176.22212 792.840131,9176.22212 L794.415517,9176.22212 L794.415517,9174.33002 C794.415517,9172.13427 795.756562,9170.93866 797.715334,9170.93866 L799.322659,9170.93866 C799.528305,9170.93866 799.695067,9171.10538 799.695067,9171.31106 L799.695067,9172.96221 C799.695067,9173.16781 799.528429,9173.33449 799.322867,9173.33461 L798.336473,9173.33507 C797.271231,9173.33507 797.064961,9173.84126 797.064961,9174.58412 L797.064961,9176.22216 L799.405666,9176.22216 C799.628695,9176.22216 799.801737,9176.41691 799.775454,9176.6384 L799.543359,9178.59658 C799.521152,9178.78396 799.362249,9178.92515 799.17357,9178.92515 L797.075399,9178.92515 L797.064961,9185 L800.709241,9185 C801.97439,9185 803,9183.9744 803,9182.70926 L803,9170.29078 C802.999958,9169.0256 801.974348,9168 800.709158,9168 L800.709158,9168 Z" id="Shape"></path>
        </g>
    </g>
</svg>