<?xml version="1.0" encoding="UTF-8"?>
<svg width="543px" height="475px" viewBox="0 0 543 475" version="1.1" xmlns="http://www.w3.org/2000/svg" xmlns:xlink="http://www.w3.org/1999/xlink">
    <!-- Generator: Sketch 52.4 (67378) - http://www.bohemiancoding.com/sketch -->
    <title>Illustration</title>
    <desc>Created with Sketch.</desc>
    <defs>
        <radialGradient cx="110.485682%" cy="169.029802%" fx="110.485682%" fy="169.029802%" r="198.127219%" gradientTransform="translate(1.104857,1.690298),scale(0.853814,1.000000),rotate(-126.560923),translate(-1.104857,-1.690298)" id="radialGradient-1">
            <stop stop-color="#301E72" offset="0%"></stop>
            <stop stop-color="#3567BE" offset="100%"></stop>
        </radialGradient>
        <radialGradient cx="110.485682%" cy="169.029802%" fx="110.485682%" fy="169.029802%" r="188.36057%" id="radialGradient-2">
            <stop stop-color="#301E72" offset="0%"></stop>
            <stop stop-color="#3567BE" offset="100%"></stop>
        </radialGradient>
        <circle id="path-3" cx="236" cy="314" r="213"></circle>
        <mask id="mask-4" maskContentUnits="userSpaceOnUse" maskUnits="objectBoundingBox" x="0" y="0" width="426" height="426" fill="white">
            <use xlink:href="#path-3"></use>
        </mask>
        <circle id="path-5" cx="182.5" cy="182.5" r="182.5"></circle>
        <filter x="-10.5%" y="-10.0%" width="121.1%" height="121.1%" filterUnits="objectBoundingBox" id="filter-6">
            <feOffset dx="0" dy="2" in="SourceAlpha" result="shadowOffsetOuter1"></feOffset>
            <feGaussianBlur stdDeviation="12.5" in="shadowOffsetOuter1" result="shadowBlurOuter1"></feGaussianBlur>
            <feColorMatrix values="0 0 0 0 0.117647059   0 0 0 0 0.0352941176   0 0 0 0 0.254901961  0 0 0 0.2 0" type="matrix" in="shadowBlurOuter1"></feColorMatrix>
        </filter>
        <circle id="path-7" cx="46" cy="46" r="46"></circle>
        <filter x="-41.8%" y="-39.7%" width="183.7%" height="183.7%" filterUnits="objectBoundingBox" id="filter-8">
            <feOffset dx="0" dy="2" in="SourceAlpha" result="shadowOffsetOuter1"></feOffset>
            <feGaussianBlur stdDeviation="12.5" in="shadowOffsetOuter1" result="shadowBlurOuter1"></feGaussianBlur>
            <feColorMatrix values="0 0 0 0 0.117647059   0 0 0 0 0.0352941176   0 0 0 0 0.254901961  0 0 0 0.2 0" type="matrix" in="shadowBlurOuter1"></feColorMatrix>
        </filter>
        <circle id="path-9" cx="46" cy="46" r="46"></circle>
        <filter x="-41.8%" y="-39.7%" width="183.7%" height="183.7%" filterUnits="objectBoundingBox" id="filter-10">
            <feOffset dx="0" dy="2" in="SourceAlpha" result="shadowOffsetOuter1"></feOffset>
            <feGaussianBlur stdDeviation="12.5" in="shadowOffsetOuter1" result="shadowBlurOuter1"></feGaussianBlur>
            <feColorMatrix values="0 0 0 0 0.117647059   0 0 0 0 0.0352941176   0 0 0 0 0.254901961  0 0 0 0.2 0" type="matrix" in="shadowBlurOuter1"></feColorMatrix>
        </filter>
        <circle id="path-11" cx="46" cy="46" r="46"></circle>
        <filter x="-41.8%" y="-39.7%" width="183.7%" height="183.7%" filterUnits="objectBoundingBox" id="filter-12">
            <feOffset dx="0" dy="2" in="SourceAlpha" result="shadowOffsetOuter1"></feOffset>
            <feGaussianBlur stdDeviation="12.5" in="shadowOffsetOuter1" result="shadowBlurOuter1"></feGaussianBlur>
            <feColorMatrix values="0 0 0 0 0.117647059   0 0 0 0 0.0352941176   0 0 0 0 0.254901961  0 0 0 0.2 0" type="matrix" in="shadowBlurOuter1"></feColorMatrix>
        </filter>
    </defs>
    <g id="Page-1" stroke="none" stroke-width="1" fill="none" fill-rule="evenodd">
        <g id="SMM" transform="translate(-729.000000, -5965.000000)">
            <g id="Performance" transform="translate(148.000000, 5913.000000)">
                <g id="Illustration" transform="translate(585.000000, 0.000000)">
                    <path d="M313.575582,52.9221404 L458.754206,72.7755029 C509.549464,79.7218193 545.096055,126.530614 538.149738,177.325872 C537.721327,180.458651 537.133132,183.567494 536.387455,186.640246 L525.305457,232.306425 C517.120985,266.032612 492.035374,293.103786 459.029051,303.828706 L358.372207,336.535669 C305.847048,353.602949 249.431229,324.858657 232.363949,272.333498 C232.19465,271.812472 232.029634,271.290063 231.86892,270.766325 L204.426312,181.335879 C188.224558,128.537322 217.892129,72.6015182 270.690686,56.3997642 C284.563984,52.142607 299.197619,50.9559357 313.575582,52.9221404 Z" id="Rectangle-11" fill="url(#radialGradient-1)"></path>
                    <circle id="Oval-6" fill="url(#radialGradient-2)" cx="83.5" cy="442.5" r="60.5"></circle>
                    <use id="Border" stroke-opacity="0.5" stroke="#1E0941" mask="url(#mask-4)" stroke-width="2" stroke-dasharray="9" xlink:href="#path-3"></use>
                    <g id="Big_oval" transform="translate(54.000000, 132.000000)">
                        <g id="Oval">
                            <use fill="black" fill-opacity="1" filter="url(#filter-6)" xlink:href="#path-5"></use>
                            <use fill="#FFFFFF" fill-rule="evenodd" xlink:href="#path-5"></use>
                        </g>
                        <g id="profits" transform="translate(120.000000, 131.980469)">
                            <path d="M102.425449,11.0149102 L101.102695,1.56687891 C101.036004,1.09117969 100.781789,0.661992187 100.396406,0.375046875 C100.01127,0.0883476562 99.5274492,-0.0322382813 99.0522422,0.0406054687 L88.6434609,1.63480078 C87.6627773,1.78491797 86.9897109,2.70161719 87.1398281,3.68205469 C87.2899453,4.66273828 88.2071367,5.33629687 89.187082,5.1856875 L95.2525547,4.25668359 C87.1413047,14.2847578 78.4175273,22.8266719 69.2803125,29.6707852 C61.3295156,35.6262539 53.0501836,40.3202461 44.6724141,43.6228242 C30.4139883,49.2433594 20.6775352,48.8742187 20.5818047,48.8707734 C19.5890625,48.8205703 18.7516055,49.5878906 18.7036172,50.5776797 C18.6553828,51.5684531 19.4195039,52.4105859 20.4102773,52.4588203 C20.4688477,52.4615273 20.713957,52.4721094 21.1342852,52.4721094 C23.722207,52.4721094 32.9290664,52.0749141 45.7645781,47.0528789 C54.4684219,43.6474336 63.057832,38.8016016 71.2945898,32.64975 C80.7598477,25.5802148 89.7816445,16.7525859 98.1503086,6.38637891 L98.867918,11.5130039 C98.9936719,12.411 99.7629609,13.0601953 100.644469,13.0601953 C100.727156,13.0601953 100.81132,13.0545352 100.89573,13.0427227 C101.878137,12.9051562 102.563016,11.9973164 102.425449,11.0149102 Z" id="Shape" fill="#1E0941" fill-rule="nonzero"></path>
                            <circle id="Oval-7" fill="#F99229" cx="96" cy="79" r="15"></circle>
                            <rect id="Rectangle-14" fill="#F99229" x="53" y="45" width="18" height="55" rx="3"></rect>
                            <rect id="Rectangle-14" fill="#F99229" x="19" y="59" width="18" height="41" rx="3"></rect>
                            <path d="M122.685855,96.8979375 L108.171492,96.8979375 C109.366277,96.1035469 110.491418,95.1856172 111.528949,94.1478398 C115.618781,90.0580078 117.871031,84.6203203 117.871031,78.836625 C117.871031,73.0526836 115.618781,67.6149961 111.528949,63.5254102 C110.072074,62.0685352 108.454746,60.8690742 106.737012,59.9149687 L106.737012,52.6640625 C106.737012,51.6720586 105.932777,50.8680703 104.94102,50.8680703 C103.949016,50.8680703 103.145027,51.6723047 103.145027,52.6640625 L103.145027,58.3197891 C98.2288125,56.655457 92.8905469,56.8139414 88.0899961,58.7625117 L88.0899961,36.7006992 C88.0899961,36.4683867 88.2789961,36.2793867 88.5113086,36.2793867 L102.723715,36.2793867 C102.956027,36.2793867 103.145027,36.4683867 103.145027,36.7006992 L103.145027,41.1586875 C103.145027,42.1506914 103.949262,42.9546797 104.94102,42.9546797 C105.933023,42.9546797 106.737012,42.1504453 106.737012,41.1586875 L106.737012,36.7006992 C106.737012,34.4875781 104.93659,32.6871562 102.723469,32.6871562 L88.5110625,32.6871562 C86.2979414,32.6871562 84.4975195,34.4875781 84.4975195,36.7006992 L84.4975195,60.6313477 C83.2252148,61.4505937 82.0188633,62.4123281 80.9065195,63.524918 C76.8166875,67.61475 74.5644375,73.0524375 74.5644375,78.8361328 C74.5644375,84.6200742 76.8166875,90.0577617 80.9065195,94.1473477 C81.9440508,95.1848789 83.0691914,96.1030547 84.2639766,96.8974453 L72.9222539,96.8974453 L72.9222539,52.9977656 C72.9222539,50.7846445 71.121832,48.9842227 68.9087109,48.9842227 L54.6965508,48.9842227 C52.4834297,48.9842227 50.6830078,50.7846445 50.6830078,52.9977656 L50.6830078,96.8979375 L39.1074961,96.8979375 L39.1074961,67.7724961 C39.1074961,65.559375 37.3070742,63.7589531 35.0939531,63.7589531 L20.8815469,63.7589531 C18.6684258,63.7589531 16.8680039,65.559375 16.8680039,67.7724961 L16.8680039,96.8979375 L9.4696875,96.8979375 L9.4696875,4.53009375 C9.4696875,2.70260156 7.98303516,1.21594922 6.15554297,1.21594922 L3.31414453,1.21594922 C1.48665234,1.21594922 2.18575158e-16,2.70260156 2.18575158e-16,4.53009375 L2.18575158e-16,17.2811953 C2.18575158e-16,18.2731992 0.804234375,19.0771875 1.79599219,19.0771875 C2.78775,19.0771875 3.59198437,18.2729531 3.59198437,17.2811953 L3.59198437,4.80817969 L5.87721094,4.80817969 L5.87721094,97.1760234 C5.87721094,99.0035156 7.36410937,100.490168 9.19135547,100.490168 L122.407523,100.490168 L122.407523,103.193016 L3.59223047,103.193016 L3.59223047,28.6310391 C3.59223047,27.6390352 2.78799609,26.8350469 1.79623828,26.8350469 C0.804480469,26.8350469 0,27.6390352 0,28.6310391 L0,103.470855 C0,105.298348 1.48665234,106.785 3.31414453,106.785 L122.685855,106.785 C124.513348,106.785 126,105.298348 126,103.470855 L126,100.211836 C126,98.3845898 124.513348,96.8979375 122.685855,96.8979375 Z M35.5152656,96.8979375 L20.4602344,96.8979375 L20.4602344,67.7724961 C20.4602344,67.5401836 20.6492344,67.3511836 20.8815469,67.3511836 L35.0939531,67.3511836 C35.3262656,67.3511836 35.5152656,67.5401836 35.5152656,67.7724961 L35.5152656,96.8979375 Z M54.2749922,96.8979375 L54.2749922,52.9977656 C54.2749922,52.7654531 54.4639922,52.5764531 54.6963047,52.5764531 L68.9084648,52.5764531 C69.1407773,52.5764531 69.3297773,52.7654531 69.3297773,52.9977656 L69.3297773,96.8979375 L54.2749922,96.8979375 Z M104.152043,95.0615859 C102.332918,95.9512148 100.356293,96.5292891 98.343,96.7699687 C98.3090391,96.7739062 98.2753242,96.778582 98.2413633,96.7825195 C98.1037969,96.7982695 97.9662305,96.8115586 97.828418,96.8241094 C97.6182539,96.8425664 97.4078437,96.8593008 97.1964492,96.870375 C97.1297578,96.8740664 97.0630664,96.8760352 96.996375,96.8789883 C96.7377305,96.8898164 96.4783477,96.8979375 96.2177344,96.8979375 C95.9563828,96.8979375 95.6965078,96.8898164 95.437125,96.8789883 C95.3551758,96.875543 95.2729805,96.8716055 95.1912773,96.8669297 C94.9956328,96.8561016 94.8007266,96.8410898 94.6060664,96.8241094 C94.4446289,96.8095898 94.2834375,96.7926094 94.1224922,96.7736602 C94.0073203,96.7603711 93.8923945,96.7468359 93.7779609,96.731332 C93.6143086,96.7089375 93.4511484,96.6853125 93.2882344,96.6584883 C93.2670703,96.655043 93.2459062,96.6511055 93.2247422,96.6474141 C91.1056289,96.2915625 89.0591133,95.5609102 87.192,94.4822812 C87.1821562,94.4766211 87.1718203,94.4729297 87.1619766,94.4675156 C85.82175,93.6881367 84.5718398,92.733293 83.4464531,91.6076602 C80.0351016,88.1963086 78.1564219,83.6608008 78.1564219,78.8363789 C78.1564219,74.011957 80.0351016,69.4764492 83.4464531,66.0650977 C84.7527187,64.758832 86.2115625,63.6961992 87.7653984,62.8744922 C87.8092031,62.8511133 87.8535,62.8289648 87.8975508,62.8060781 C90.4970391,61.4589609 93.3568945,60.7836797 96.2177344,60.7836797 C98.5046836,60.7836797 100.791387,61.2158203 102.944707,62.0766562 C102.982113,62.091668 103.019766,62.1059414 103.056926,62.1211992 C103.280625,62.2122539 103.502355,62.3094609 103.722855,62.4098672 C103.810711,62.4499805 103.89832,62.4918164 103.985684,62.5334062 C105.795949,63.39375 107.492766,64.5688477 108.98877,66.0648516 C116.030742,73.1070703 116.030742,84.5651953 108.98877,91.6074141 C107.572992,93.0239297 105.961078,94.1712187 104.217504,95.0345156 C104.195848,95.0441133 104.173453,95.0510039 104.152043,95.0615859 Z" id="Shape" fill="#1E0941" fill-rule="nonzero"></path>
                            <path d="M97.0524844,77.0977266 L97.0524844,70.7005195 C99.2584688,70.8580195 100.077961,71.8665117 100.834207,71.8665117 C101.779699,71.8665117 102.220945,70.6690195 102.220945,70.0702734 C102.220945,68.5260352 99.1957148,67.8642891 97.0527305,67.8012891 L97.0527305,66.9502969 C97.0527305,66.5720508 96.5802305,66.2255508 96.1074844,66.2255508 C95.5717383,66.2255508 95.1934922,66.5720508 95.1934922,66.9502969 L95.1934922,67.8642891 C92.1995156,68.1795352 89.2057852,69.7552734 89.2057852,73.7259961 C89.2057852,77.7597187 92.3572617,78.8942109 95.1934922,79.9027031 L95.1934922,87.3084023 C91.9790156,87.0564023 91.1282695,84.850418 90.0882773,84.850418 C89.3002852,84.850418 88.6385391,85.8901641 88.6385391,86.6466562 C88.6385391,88.1908945 91.2857695,90.3023789 95.1934922,90.3653789 L95.1932461,90.3653789 L95.1932461,91.342125 C95.1932461,91.7203711 95.5714922,92.0668711 96.1072383,92.0668711 C96.5797383,92.0668711 97.0524844,91.7203711 97.0524844,91.342125 L97.0524844,90.2706328 C100.455961,89.7978867 102.787945,87.6549023 102.787945,83.7786797 C102.787945,79.4927109 99.7942148,78.1062187 97.0524844,77.0977266 Z M95.3827383,76.4989805 C93.7122539,75.8687344 92.3572617,75.2069883 92.3575078,73.41075 C92.3575078,71.7717656 93.618,70.9840195 95.3827383,70.7635195 L95.3827383,76.4989805 Z M96.8637305,87.2454023 L96.8637305,80.5959492 C98.4079688,81.2576953 99.6369609,82.1399414 99.6369609,84.1254258 C99.6369609,85.9219102 98.5654688,86.9304023 96.8637305,87.2454023 Z" id="Shape" fill="#1E0941" fill-rule="nonzero"></path>
                        </g>
                    </g>
                    <g id="Icons_3" transform="translate(281.194174, 281.119535) rotate(-45.000000) translate(-281.194174, -281.119535) translate(105.694174, 59.119535)">
                        <g id="1" transform="translate(74.000000, 352.000000)">
                            <g id="Oval">
                                <use fill="black" fill-opacity="1" filter="url(#filter-8)" xlink:href="#path-7"></use>
                                <use fill="#FFFFFF" fill-rule="evenodd" xlink:href="#path-7"></use>
                            </g>
                            <g id="growth" transform="translate(46.000000, 46.000000) rotate(-315.000000) translate(-46.000000, -46.000000) translate(23.000000, 23.000000)" fill-rule="nonzero">
                                <path d="M13.3376289,32.6030928 L13.3376289,30.3800756 L14.0786873,30.3800756 C16.1214983,30.3800756 17.7836632,28.7180687 17.7836632,26.6750997 C17.7836632,24.6322887 16.1216564,22.9701237 14.0786873,22.9701237 L11.1147698,22.9701237 C9.88920962,22.9701237 8.89175258,21.9728247 8.89175258,20.7471065 C8.89175258,19.5213883 9.88905155,18.5242474 11.1147698,18.5242474 L14.0786873,18.5242474 C15.3042474,18.5242474 16.3017045,19.5215464 16.3017045,20.7471065 L16.3017045,21.4881649 L17.7836632,21.4881649 L17.7836632,20.7471065 C17.7836632,18.7042955 16.1216564,17.0422887 14.0786873,17.0422887 L13.3376289,17.0422887 L13.3376289,14.8195876 L11.8556701,14.8195876 L11.8556701,17.0426048 L11.1146117,17.0426048 C9.07180069,17.0426048 7.40963574,18.7046117 7.40963574,20.7474227 C7.40963574,22.7902337 9.07164261,24.4523986 11.1146117,24.4523986 L14.0785292,24.4523986 C15.3040893,24.4523986 16.3015464,25.4496976 16.3015464,26.6754158 C16.3015464,27.901134 15.3042474,28.898433 14.0785292,28.898433 L11.1146117,28.898433 C9.88905155,28.898433 8.8915945,27.901134 8.8915945,26.6754158 L8.8915945,25.9343574 L7.40963574,25.9343574 L7.40963574,26.6754158 C7.40963574,28.7182268 9.07164261,30.3803918 11.1146117,30.3803918 L11.8556701,30.3803918 L11.8556701,32.6034089 L13.3376289,32.6034089 L13.3376289,32.6030928 Z" id="Shape" fill="#1E0941"></path>
                                <path d="M45.9407216,21.4884811 L45.9407216,16.3017045 L43.7177045,16.3017045 L43.7177045,14.0786873 L45.1996632,14.0786873 L45.1996632,8.89175258 L28.8982749,8.89175258 L28.8982749,12.5967285 L27.4163162,12.5967285 L27.4163162,17.7835052 L29.6391753,17.7835052 L29.6391753,20.0065223 L28.1572165,20.0065223 L28.1572165,25.193299 L29.6391753,25.193299 L29.6391753,27.4163162 L26.6752577,27.4163162 L26.6752577,32.6032509 L28.1572165,32.6032509 L28.1572165,34.826268 L16.8121306,34.826268 C21.6878144,33.086488 25.193299,28.4360619 25.193299,22.9705979 C25.193299,18.91011 23.2288935,15.1309966 19.984866,12.7777251 C20.4486598,12.3702062 20.7472646,11.7796357 20.7472646,11.1149278 C20.7472646,10.0012852 19.9217938,9.08460481 18.8517801,8.9252646 C20.0714914,7.47586942 20.7472646,5.65009622 20.7472646,3.70513402 L20.7472646,2.22317526 C20.7474227,0.997457045 19.7501237,0 18.5245636,0 C17.2990034,0 16.3015464,0.997298969 16.3015464,2.22301718 C16.3015464,2.63211684 15.9695876,2.9640756 15.560488,2.9640756 C15.1513883,2.9640756 14.8194296,2.63211684 14.8194296,2.22301718 C14.8195876,0.997457045 13.8222887,0 12.5967285,0 C11.3711684,0 10.3737113,0.997457045 10.3737113,2.22301718 C10.3737113,2.63211684 10.0417526,2.9640756 9.63265292,2.9640756 C9.22355326,2.9640756 8.8915945,2.63211684 8.8915945,2.22301718 C8.89175258,0.997457045 7.89445361,0 6.66889347,0 C5.44333333,0 4.44587629,0.997457045 4.44587629,2.22301718 L4.44587629,3.70497595 C4.44587629,5.64930584 5.12164948,7.47586942 6.34136082,8.92510653 C5.27134708,9.08444674 4.44587629,10.0009691 4.44587629,11.1147698 C4.44587629,11.7794777 4.7444811,12.3700481 5.20827491,12.777567 C1.9644055,15.1308385 0,18.9097938 0,22.9704399 C0,28.4359038 3.50564261,33.0863299 8.38116838,34.82611 L0,34.82611 L0,40.5063986 C0,43.5028797 2.43784192,45.9407216 5.43432302,45.9407216 L40.5063986,45.9407216 C43.5028797,45.9407216 45.9407216,43.5028797 45.9407216,40.5063986 L45.9407216,34.82611 L44.4587629,34.82611 L44.4587629,31.121134 L42.9768041,31.121134 L42.9768041,28.8981168 L45.9407216,28.8981168 L45.9407216,23.7113402 L44.4587629,23.7113402 L44.4587629,21.488323 L45.9407216,21.488323 L45.9407216,21.4884811 Z M5.92783505,2.22301718 C5.92783505,1.81391753 6.25979381,1.48195876 6.66889347,1.48195876 C7.07799313,1.48195876 7.40995189,1.81391753 7.40995189,2.22301718 C7.40995189,3.44857732 8.40725086,4.44603436 9.63296907,4.44603436 C10.8586873,4.44603436 11.8556701,3.44857732 11.8556701,2.22301718 C11.8556701,1.81391753 12.1876289,1.48195876 12.5967285,1.48195876 C13.0058282,1.48195876 13.3377869,1.81391753 13.3377869,2.22301718 C13.3377869,3.44857732 14.3350859,4.44603436 15.5608041,4.44603436 C16.7865223,4.44603436 17.7835052,3.44857732 17.7835052,2.22301718 C17.7835052,1.81391753 18.1154639,1.48195876 18.5245636,1.48195876 C18.9336632,1.48195876 19.265622,1.81391753 19.265622,2.22301718 L19.265622,3.70497595 C19.265622,5.73893471 18.3609553,7.6159244 16.7751409,8.89191065 L8.41894845,8.89191065 C6.83250172,7.6159244 5.92846735,5.73909278 5.92846735,3.70497595 L5.92846735,2.22301718 L5.92783505,2.22301718 Z M6.66889347,10.3737113 L7.91816495,10.3737113 L17.2760825,10.3737113 L18.5245636,10.3737113 C18.9336632,10.3737113 19.265622,10.7056701 19.265622,11.1147698 C19.265622,11.5238694 18.9335052,11.8556701 18.5245636,11.8556701 L18.5237732,11.8556701 L6.66952577,11.8556701 L6.6687354,11.8556701 C6.25979381,11.8556701 5.92783505,11.5237113 5.92783505,11.1147698 C5.92783505,10.7058282 6.25979381,10.3737113 6.66889347,10.3737113 Z M1.48195876,22.9704399 C1.48195876,18.9957869 3.61297595,15.3227423 7.05554639,13.3377869 L18.1369622,13.3377869 C21.5795326,15.3229003 23.7105498,18.995945 23.7105498,22.9704399 C23.7105498,29.0990309 18.7245292,34.0852096 12.5957801,34.0852096 C6.46703093,34.0852096 1.48195876,29.0990309 1.48195876,22.9704399 Z M44.4587629,17.7835052 L44.4587629,20.0065223 L42.2357457,20.0065223 L42.2357457,17.7835052 L43.7177045,17.7835052 L44.4587629,17.7835052 Z M38.5309278,27.4163162 L38.5309278,25.193299 L40.753945,25.193299 L40.753945,27.4163162 L38.5309278,27.4163162 Z M37.0489691,34.82611 L37.0489691,32.6030928 L39.2719863,32.6030928 L39.2719863,34.82611 L37.0489691,34.82611 Z M34.0850515,28.8982749 L34.0850515,31.1212921 L31.8620344,31.1212921 L31.8620344,28.8982749 L34.0850515,28.8982749 Z M40.753945,17.7835052 L40.753945,20.0065223 L38.5309278,20.0065223 L38.5309278,17.7835052 L40.753945,17.7835052 Z M36.3080687,16.3015464 L36.3080687,14.0786873 L38.5310859,14.0786873 L38.5310859,16.3017045 L36.3080687,16.3017045 L36.3080687,16.3015464 Z M37.7900275,12.5967285 L37.7900275,10.3737113 L40.0130447,10.3737113 L40.0130447,12.5967285 L37.7900275,12.5967285 Z M36.3080687,12.5967285 L34.0850515,12.5967285 L34.0850515,10.3737113 L36.3080687,10.3737113 L36.3080687,12.5967285 Z M34.82611,14.0786873 L34.82611,16.3017045 L32.6030928,16.3017045 L32.6030928,14.0786873 L34.82611,14.0786873 Z M37.0489691,17.7835052 L37.0489691,20.0065223 L34.8259519,20.0065223 L34.8259519,17.7835052 L37.0489691,17.7835052 Z M35.5670103,21.4884811 L35.5670103,23.7113402 L33.3439931,23.7113402 L33.3439931,21.488323 L35.5670103,21.488323 L35.5670103,21.4884811 Z M37.0489691,25.193299 L37.0489691,27.4163162 L34.8259519,27.4163162 L34.8259519,25.193299 L37.0489691,25.193299 Z M35.5670103,32.6030928 L35.5670103,34.82611 L33.3439931,34.82611 L33.3439931,32.6030928 L35.5670103,32.6030928 Z M35.5670103,31.121134 L35.5670103,28.8981168 L37.7900275,28.8981168 L37.7900275,31.121134 L35.5670103,31.121134 Z M37.0489691,23.7113402 L37.0489691,21.488323 L39.2719863,21.488323 L39.2719863,23.7113402 L37.0489691,23.7113402 Z M42.2359038,16.3015464 L40.0128866,16.3015464 L40.0128866,14.0786873 L42.2359038,14.0786873 L42.2359038,16.3015464 Z M43.7178625,12.5967285 L41.4948454,12.5967285 L41.4948454,10.3737113 L43.7178625,10.3737113 L43.7178625,12.5967285 Z M30.3802337,10.3737113 L32.6032509,10.3737113 L32.6032509,12.5967285 L30.3802337,12.5967285 L30.3802337,10.3737113 Z M28.8982749,16.3015464 L28.8982749,14.0786873 L31.1212921,14.0786873 L31.1212921,16.3017045 L29.6391753,16.3017045 L28.8982749,16.3017045 L28.8982749,16.3015464 Z M31.121134,17.7835052 L33.3441512,17.7835052 L33.3441512,20.0065223 L31.121134,20.0065223 L31.121134,17.7835052 Z M29.6391753,21.4884811 L31.8621924,21.4884811 L31.8621924,23.7113402 L29.6391753,23.7113402 L29.6391753,21.4884811 Z M31.121134,25.193299 L33.3441512,25.193299 L33.3441512,27.4163162 L31.121134,27.4163162 L31.121134,25.193299 Z M28.1572165,28.8982749 L29.6391753,28.8982749 L30.3802337,28.8982749 L30.3802337,31.1212921 L28.1572165,31.1212921 L28.1572165,28.8982749 Z M29.6391753,32.6030928 L31.8621924,32.6030928 L31.8621924,34.82611 L29.6391753,34.82611 L29.6391753,32.6030928 Z M44.4587629,38.5309278 L34.8259519,38.5309278 L34.8259519,40.0128866 L44.4587629,40.0128866 L44.4587629,40.5063986 C44.4587629,42.6856289 42.6856289,44.4587629 40.5063986,44.4587629 L5.43432302,44.4587629 C3.25509278,44.4587629 1.48195876,42.6856289 1.48195876,40.5063986 L1.48195876,40.0128866 L32.6030928,40.0128866 L32.6030928,38.5309278 L1.48195876,38.5309278 L1.48195876,36.3079107 L28.1572165,36.3079107 L44.4587629,36.3079107 L44.4587629,38.5309278 Z M42.9768041,34.82611 L40.7537869,34.82611 L40.7537869,32.6030928 L42.9768041,32.6030928 L42.9768041,34.82611 Z M41.4948454,31.121134 L39.2718282,31.121134 L39.2718282,28.8981168 L41.4948454,28.8981168 L41.4948454,31.121134 Z M44.4587629,27.4163162 L42.9768041,27.4163162 L42.2357457,27.4163162 L42.2357457,25.193299 L44.4587629,25.193299 L44.4587629,27.4163162 Z M42.9768041,23.7113402 L40.7537869,23.7113402 L40.7537869,21.488323 L42.9768041,21.488323 L42.9768041,23.7113402 Z" id="Shape" fill="#1E0941"></path>
                                <polygon id="Rectangle-path" fill="#F99229" points="1.48195876 36.3080687 44.4587629 36.3080687 44.4587629 38.5310859 1.48195876 38.5310859"></polygon>
                            </g>
                        </g>
                        <g id="1" transform="translate(-0.000000, 0.000000)">
                            <g id="Oval">
                                <use fill="black" fill-opacity="1" filter="url(#filter-10)" xlink:href="#path-9"></use>
                                <use fill="#FFFFFF" fill-rule="evenodd" xlink:href="#path-9"></use>
                            </g>
                            <g id="web-design" transform="translate(45.646447, 46.353553) rotate(-315.000000) translate(-45.646447, -46.353553) translate(23.146447, 23.353553)" fill-rule="nonzero">
                                <g id="Group" fill="#F99229">
                                    <path d="M29.0322581,7.25806452 L0,7.25806452 L0,0 L29.0322581,0 L29.0322581,7.25806452 Z M1.4516129,5.80645161 L27.5806452,5.80645161 L27.5806452,1.4516129 L1.4516129,1.4516129 L1.4516129,5.80645161 Z" id="Shape"></path>
                                    <rect id="Rectangle-path" x="2.90322581" y="2.90322581" width="1.4516129" height="1.4516129"></rect>
                                    <rect id="Rectangle-path" x="5.80645161" y="2.90322581" width="1.4516129" height="1.4516129"></rect>
                                    <rect id="Rectangle-path" x="8.70967742" y="2.90322581" width="1.4516129" height="1.4516129"></rect>
                                </g>
                                <rect id="Rectangle-path" fill="#FFFFFF" x="3.62903226" y="21.0483871" width="7.98387097" height="8.70967742"></rect>
                                <g id="Group" transform="translate(33.387097, 18.870968)" fill="#F99229">
                                    <rect id="Rectangle-path" x="0" y="11.6129032" width="5.80645161" height="1.4516129"></rect>
                                    <rect id="Rectangle-path" x="0" y="8.70967742" width="5.80645161" height="1.4516129"></rect>
                                    <rect id="Rectangle-path" x="0" y="5.80645161" width="5.80645161" height="1.4516129"></rect>
                                    <rect id="Rectangle-path" x="0" y="2.90322581" width="5.80645161" height="1.4516129"></rect>
                                    <rect id="Rectangle-path" x="0" y="0" width="5.80645161" height="1.4516129"></rect>
                                </g>
                                <rect id="Rectangle-path" fill="#F99229" x="16.6935484" y="21.0483871" width="11.6129032" height="14.516129"></rect>
                                <g id="Group" transform="translate(0.000000, 7.258065)" fill="#1E0941">
                                    <path d="M28.3064516,5.80645161 L16.6935484,5.80645161 C14.6925,5.80645161 13.0645161,7.43443548 13.0645161,9.43548387 L13.0645161,29.0322581 L14.516129,29.0322581 L14.516129,11.6129032 L30.483871,11.6129032 L30.483871,29.0322581 L31.9354839,29.0322581 L31.9354839,9.43548387 C31.9354839,7.43443548 30.3075,5.80645161 28.3064516,5.80645161 Z M14.516129,10.1612903 L14.516129,9.43548387 C14.516129,8.235 15.4930645,7.25806452 16.6935484,7.25806452 L28.3064516,7.25806452 C29.5069355,7.25806452 30.483871,8.235 30.483871,9.43548387 L30.483871,10.1612903 L14.516129,10.1612903 Z" id="Shape"></path>
                                    <path d="M13.0645161,34.1129032 C13.0645161,36.1139516 14.6925,37.7419355 16.6935484,37.7419355 L28.3064516,37.7419355 C30.3075,37.7419355 31.9354839,36.1139516 31.9354839,34.1129032 L31.9354839,30.483871 L13.0645161,30.483871 L13.0645161,34.1129032 Z M14.516129,31.9354839 L30.483871,31.9354839 L30.483871,34.1129032 C30.483871,35.3133871 29.5069355,36.2903226 28.3064516,36.2903226 L16.6935484,36.2903226 C15.4930645,36.2903226 14.516129,35.3133871 14.516129,34.1129032 L14.516129,31.9354839 Z" id="Shape"></path>
                                    <rect id="Rectangle-path" x="19.5967742" y="33.3870968" width="5.80645161" height="1.4516129"></rect>
                                    <polygon id="Shape" points="1.4516129 1.4516129 0 1.4516129 0 26.1290323 11.6129032 26.1290323 11.6129032 24.6774194 1.4516129 24.6774194"></polygon>
                                    <rect id="Rectangle-path" x="27.5806452" y="1.4516129" width="1.4516129" height="2.90322581"></rect>
                                    <path d="M39.4940323,0 L30.483871,0 L30.483871,1.4516129 L38.4677419,1.4516129 L38.4677419,7.25806452 L45,7.25806452 L45,5.50596774 L39.4940323,0 Z M39.9193548,5.80645161 L39.9193548,2.47862903 L43.2471774,5.80645161 L39.9193548,5.80645161 Z" id="Shape"></path>
                                    <polygon id="Shape" points="43.5483871 29.0322581 33.3870968 29.0322581 33.3870968 30.483871 45 30.483871 45 8.70967742 43.5483871 8.70967742"></polygon>
                                    <polygon id="Shape" points="15.9677419 4.35483871 17.4193548 4.35483871 17.4193548 1.4516129 2.90322581 1.4516129 2.90322581 2.90322581 15.9677419 2.90322581"></polygon>
                                    <polygon id="Shape" points="4.35483871 4.35483871 2.90322581 4.35483871 2.90322581 11.6129032 11.6129032 11.6129032 11.6129032 10.1612903 4.35483871 10.1612903"></polygon>
                                    <polygon id="Shape" points="2.90322581 23.2258065 11.6129032 23.2258065 11.6129032 21.7741935 4.35483871 21.7741935 4.35483871 14.516129 11.6129032 14.516129 11.6129032 13.0645161 2.90322581 13.0645161"></polygon>
                                    <rect id="Rectangle-path" x="5.80645161" y="15.9677419" width="5.80645161" height="1.4516129"></rect>
                                    <rect id="Rectangle-path" x="5.80645161" y="18.8709677" width="5.80645161" height="1.4516129"></rect>
                                    <polygon id="Shape" points="33.3870968 26.1290323 33.3870968 27.5806452 42.0967742 27.5806452 42.0967742 8.70967742 33.3870968 8.70967742 33.3870968 10.1612903 40.6451613 10.1612903 40.6451613 26.1290323"></polygon>
                                    <path d="M15.9677419,13.0645161 L15.9677419,29.0322581 L29.0322581,29.0322581 L29.0322581,13.0645161 L15.9677419,13.0645161 Z M27.5806452,27.5806452 L17.4193548,27.5806452 L17.4193548,14.516129 L27.5806452,14.516129 L27.5806452,27.5806452 Z" id="Shape"></path>
                                </g>
                            </g>
                        </g>
                        <g id="1" transform="translate(259.000000, 168.000000)">
                            <g id="Oval">
                                <use fill="black" fill-opacity="1" filter="url(#filter-12)" xlink:href="#path-11"></use>
                                <use fill="#FFFFFF" fill-rule="evenodd" xlink:href="#path-11"></use>
                            </g>
                            <g id="conference" transform="translate(46.000000, 46.000000) rotate(-315.000000) translate(-46.000000, -46.000000) translate(24.000000, 24.000000)" fill-rule="nonzero">
                                <circle id="Oval" fill="#F99229" cx="21.9717251" cy="21.9717251" r="15.5927835"></circle>
                                <path d="M17.7191478,32.6030928 C18.8914227,32.6030928 19.845512,31.6491546 19.845512,30.4767285 L19.845512,2.12621306 C19.8453608,0.954089347 18.8914227,0 17.7191478,0 L2.12636426,0 C0.953938144,0 0,0.954089347 0,2.12636426 L0,30.4768797 C0,31.6491546 0.953938144,32.603244 2.12636426,32.603244 L17.7191478,32.603244 L17.7191478,32.6030928 Z M18.4278351,25.5154639 L1.41752577,25.5154639 L1.41752577,5.67010309 L18.4278351,5.67010309 L18.4278351,25.5154639 Z M2.12636426,1.41752577 L17.7191478,1.41752577 C18.1097045,1.41752577 18.4279863,1.73580756 18.4279863,2.12636426 L18.4279863,4.25272852 L1.41752577,4.25272852 L1.41752577,2.12636426 C1.41752577,1.73580756 1.73580756,1.41752577 2.12636426,1.41752577 Z M1.41752577,30.4768797 L1.41752577,26.9329897 L9.92268041,26.9329897 L18.4278351,26.9329897 L18.4278351,30.4768797 C18.4278351,30.8680412 18.1095533,31.1857182 17.7189966,31.1857182 L9.92268041,31.1857182 L2.12636426,31.1857182 C1.73580756,31.185567 1.41752577,30.8680412 1.41752577,30.4768797 Z" id="Shape" fill="#1E0941"></path>
                                <path d="M7.79646735,29.059354 C7.79646735,30.2316289 8.7504055,31.1857182 9.92283162,31.1857182 C11.0952577,31.1857182 12.0491959,30.2317801 12.0491959,29.059354 C12.0491959,27.887079 11.0952577,26.9329897 9.92283162,26.9329897 C8.7504055,26.9329897 7.79646735,27.887079 7.79646735,29.059354 Z M9.92268041,28.3505155 C10.3132371,28.3505155 10.6315189,28.6680412 10.6315189,29.059354 C10.6315189,29.4505155 10.3132371,29.7681924 9.92268041,29.7681924 C9.53212371,29.7681924 9.21384192,29.4506667 9.21384192,29.059354 C9.21399313,28.6680412 9.53212371,28.3505155 9.92268041,28.3505155 Z" id="Shape" fill="#1E0941"></path>
                                <rect id="Rectangle-path" fill="#1E0941" x="9.21399313" y="2.12636426" width="4.25257732" height="1.41752577"></rect>
                                <rect id="Rectangle-path" fill="#1E0941" x="6.37894158" y="2.12636426" width="1.41752577" height="1.41752577"></rect>
                                <path d="M41.8170859,11.3402062 L26.2243024,11.3402062 C25.0520275,11.3402062 24.0979381,12.2941443 24.0979381,13.4665704 L24.0979381,41.8170859 C24.0979381,42.9893608 25.0518763,43.9434502 26.2243024,43.9434502 L41.8170859,43.9434502 C42.9893608,43.9434502 43.9434502,42.989512 43.9434502,41.8170859 L43.9434502,13.4665704 C43.943299,12.2942955 42.9893608,11.3402062 41.8170859,11.3402062 Z M26.2243024,12.757732 L41.8170859,12.757732 C42.2076426,12.757732 42.5259244,13.0760137 42.5259244,13.4665704 L42.5259244,15.5929347 L25.5156151,15.5929347 L25.5156151,13.4665704 C25.5154639,13.0760137 25.8337457,12.757732 26.2243024,12.757732 Z M42.5257732,17.0103093 L42.5257732,36.8556701 L25.5154639,36.8556701 L25.5154639,17.0103093 L42.5257732,17.0103093 Z M41.8170859,42.5257732 L34.0206186,42.5257732 L26.2241512,42.5257732 C25.8335945,42.5257732 25.5153127,42.2082474 25.5153127,41.8169347 L25.5153127,38.2730447 L34.0206186,38.2730447 L42.5257732,38.2730447 L42.5257732,41.8169347 C42.5257732,42.2082474 42.2076426,42.5257732 41.8170859,42.5257732 Z" id="Shape" fill="#1E0941"></path>
                                <path d="M36.1469828,40.3995601 C36.1469828,39.2272852 35.1930447,38.2731959 34.0206186,38.2731959 C32.8483436,38.2731959 31.8942543,39.227134 31.8942543,40.3995601 C31.8942543,41.5719863 32.8483436,42.5257732 34.0206186,42.5257732 C35.1930447,42.5257732 36.1469828,41.5718351 36.1469828,40.3995601 Z M34.0206186,41.1082474 C33.6300619,41.1082474 33.3117801,40.7907216 33.3117801,40.3994089 C33.3117801,40.0080962 33.6300619,39.6905704 34.0206186,39.6905704 C34.4111753,39.6905704 34.729457,40.0080962 34.729457,40.3994089 C34.729457,40.7907216 34.4111753,41.1082474 34.0206186,41.1082474 Z" id="Shape" fill="#333333"></path>
                                <rect id="Rectangle-path" fill="#333333" x="33.3119313" y="13.4665704" width="4.25257732" height="1.41752577"></rect>
                                <rect id="Rectangle-path" fill="#333333" x="30.4768797" y="13.4665704" width="1.41752577" height="1.41752577"></rect>
                                <path d="M29.059354,31.8944055 L29.059354,32.603244 C29.059354,32.9951615 29.3768797,33.3120825 29.7681924,33.3120825 L38.2733471,33.3120825 C38.6645086,33.3120825 38.9821856,32.9953127 38.9821856,32.603244 L38.9821856,31.8944055 C38.9821856,29.7355326 37.5936907,27.8991753 35.6644948,27.2187629 C36.7885361,26.6240825 37.5646598,25.4560412 37.5646598,24.0980893 C37.5646598,22.1440962 35.9749141,20.5541993 34.0207698,20.5541993 C32.0667766,20.5541993 30.4768797,22.143945 30.4768797,24.0980893 C30.4768797,25.4560412 31.2530034,26.6240825 32.3770447,27.2187629 C30.4478488,27.8990241 29.059354,29.7355326 29.059354,31.8944055 Z M34.0206186,21.9717251 C35.1928935,21.9717251 36.1469828,22.9256632 36.1469828,24.0980893 C36.1469828,25.2703643 35.1930447,26.2244536 34.0206186,26.2244536 C32.8483436,26.2244536 31.8942543,25.2705155 31.8942543,24.0980893 C31.8944055,22.9256632 32.8483436,21.9717251 34.0206186,21.9717251 Z M34.0206186,28.3505155 C35.9746117,28.3505155 37.5645086,29.9402612 37.5645086,31.8944055 L30.4768797,31.8944055 C30.4768797,29.9402612 32.0666254,28.3505155 34.0206186,28.3505155 Z" id="Shape" fill="#333333"></path>
                                <path d="M4.96141581,20.5541993 L4.96141581,21.2630378 C4.96141581,21.6543505 5.27894158,21.9718763 5.6702543,21.9718763 L14.1754089,21.9718763 C14.5667216,21.9718763 14.8842474,21.6543505 14.8842474,21.2630378 L14.8842474,20.5541993 C14.8842474,18.3953265 13.4957526,16.5589691 11.5665567,15.8785567 C12.6905979,15.2838763 13.4667216,14.1158351 13.4667216,12.7578832 C13.4667216,10.80389 11.8769759,9.21399313 9.92283162,9.21399313 C7.96868729,9.21399313 6.37894158,10.8037388 6.37894158,12.757732 C6.37894158,14.1156838 7.15506529,15.2837251 8.27910653,15.8784055 C6.34975945,16.5588179 4.96141581,18.3953265 4.96141581,20.5541993 Z M9.92268041,10.6315189 C11.0949553,10.6315189 12.0490447,11.585457 12.0490447,12.7578832 C12.0490447,13.9303093 11.0951065,14.8842474 9.92268041,14.8842474 C8.7502543,14.8842474 7.79631615,13.9303093 7.79631615,12.7578832 C7.79631615,11.585457 8.7504055,10.6315189 9.92268041,10.6315189 Z M9.92268041,17.0103093 C11.8766735,17.0103093 13.4665704,18.600055 13.4665704,20.5540481 L6.37894158,20.5540481 C6.37894158,18.600055 7.96868729,17.0103093 9.92268041,17.0103093 Z" id="Shape" fill="#333333"></path>
                                <path d="M40.3995601,9.92268041 L41.8170859,9.92268041 C41.8170859,4.45110653 37.3659794,0 31.8944055,0 L21.2628866,0 L21.2628866,1.41752577 L31.8944055,1.41752577 C36.5842612,1.41752577 40.3995601,5.23282474 40.3995601,9.92268041 Z" id="Shape" fill="#333333"></path>
                                <path d="M3.54389003,34.0206186 L2.12636426,34.0206186 C2.12636426,39.4923436 6.57747079,43.943299 12.0490447,43.943299 L22.6804124,43.943299 L22.6804124,42.5257732 L12.0490447,42.5257732 C7.3590378,42.5257732 3.54389003,38.7104742 3.54389003,34.0206186 Z" id="Shape" fill="#333333"></path>
                            </g>
                        </g>
                    </g>
                </g>
            </g>
        </g>
    </g>
</svg>