<?xml version="1.0" encoding="UTF-8"?>
<svg width="190px" height="54px" viewBox="0 0 190 54" version="1.1" xmlns="http://www.w3.org/2000/svg" xmlns:xlink="http://www.w3.org/1999/xlink">
    <!-- Generator: Sketch 52.2 (67145) - http://www.bohemiancoding.com/sketch -->
    <title>Logo</title>
    <desc>Created with Sketch.</desc>
    <g id="Page-1" stroke="none" stroke-width="1" fill="none" fill-rule="evenodd">
        <g id="SMM" transform="translate(-141.000000, -38.000000)" fill="#FFFFFF">
            <g id="Screen_1" transform="translate(-336.000000, -477.000000)">
                <g id="Header" transform="translate(477.000000, 515.000000)">
                    <g id="Logo">
                        <path d="M58.6942489,30.4531342 L58.6942489,32.2334589 L60.8331883,32.2334589 C61.9102662,32.2334589 61.895461,30.4531342 60.8183831,30.4531342 L58.6942489,30.4531342 Z M58.6942489,26.5338701 L58.6942489,28.2241299 L60.3845087,28.2241299 C61.4467814,28.2241299 61.4467814,26.5338701 60.3697035,26.5338701 L58.6942489,26.5338701 Z M63.0177771,29.1667273 C63.8703095,29.6006017 64.2741623,30.3782857 64.2741623,31.3060779 C64.2589459,33.1312294 63.1522576,34.6121602 61.0129069,34.6121602 L56.1058074,34.6121602 L56.1058074,24.1399524 L60.5790325,24.1399524 C62.3889675,24.1399524 63.8406991,25.5460346 63.8406991,27.3567922 C63.8406991,27.9847792 63.5260887,28.7480693 63.0177771,29.1667273 Z" id="Fill-1"></path>
                        <polygon id="Fill-3" points="54.4632121 26.5562835 54.4632121 24.140158 46.718039 24.140158 46.718039 34.6123658 54.4632121 34.6123658 54.4632121 32.1962403 49.381329 32.1962403 49.381329 30.411803 53.6748355 30.411803 53.6748355 27.9956775 49.381329 27.9956775 49.381329 26.5562835"></polygon>
                        <polygon id="Fill-5" points="43.1203355 24.140158 41.1434307 29.4395952 39.1669372 24.140158 38.2621753 24.140158 36.2729329 29.4741407 34.2832792 24.140158 31.7084091 24.140158 35.6149242 34.6123658 36.9309416 34.6123658 38.7145563 29.8298766 40.4985823 34.6123658 41.7886905 34.6123658 45.6947944 24.140158"></polygon>
                        <polygon id="Fill-7" points="56.3594286 47.5620173 56.3594286 52.7084675 53.5916797 52.7084675 53.5916797 42.1914329 54.5642987 42.1914329 59.8600346 47.3674935 59.8600346 42.236671 62.5977619 42.236671 62.5977619 52.723684 61.6403593 52.723684"></polygon>
                        <polygon id="Fill-9" points="121.543411 47.5620173 121.543411 52.7084675 118.775662 52.7084675 118.775662 42.1914329 119.748281 42.1914329 125.044017 47.3674935 125.044017 42.236671 127.781745 42.236671 127.781745 52.723684 126.824342 52.723684"></polygon>
                        <path d="M78.1977489,44.6141385 C77.5693506,44.5993333 76.9109307,44.6141385 76.2829437,44.6141385 L76.2829437,47.2321905 L78.1977489,47.2321905 C79.648658,47.2321905 79.7235065,44.6289437 78.1977489,44.6141385 Z M82.7129221,52.6944848 L82.4612338,52.6928398 L79.4693506,52.6928398 L77.6742208,49.6108918 L76.2829437,49.6108918 L76.2829437,52.6928398 L73.6048485,52.6928398 L73.6048485,42.220632 L78.1977489,42.220632 C82.3119481,42.2354372 83.0596104,47.1873636 80.4119481,48.9824935 L82.7129221,52.6944848 Z" id="Fill-11"></path>
                        <polygon id="Fill-13" points="94.2945325 44.614961 94.2945325 42.2214545 102.07384 42.2214545 102.07384 44.614961 99.5154199 44.614961 99.5154199 52.6936623 96.8677576 52.6936623 96.8677576 44.614961"></polygon>
                        <polygon id="Fill-15" points="51.9972835 44.6374567 51.9972835 42.2213312 44.2521104 42.2213312 44.2521104 52.693539 51.9972835 52.693539 51.9972835 50.2774134 46.9154004 50.2774134 46.9154004 48.4929762 51.2089069 48.4929762 51.2089069 46.0768506 46.9154004 46.0768506 46.9154004 44.6374567"></polygon>
                        <polygon id="Fill-17" points="72.2174784 44.6374567 72.2174784 42.2213312 64.4723052 42.2213312 64.4723052 52.693539 72.2174784 52.693539 72.2174784 50.2774134 67.1355952 50.2774134 67.1355952 48.4929762 71.4291017 48.4929762 71.4291017 46.0768506 67.1355952 46.0768506 67.1355952 44.6374567"></polygon>
                        <path d="M112.413459,50.2906147 C110.848632,50.2906147 109.58032,49.0218918 109.58032,47.4574762 C109.58032,45.8930606 110.848632,44.6247489 112.413459,44.6247489 C113.978286,44.6247489 115.246186,45.8930606 115.246186,47.4574762 C115.246186,49.0218918 113.978286,50.2906147 112.413459,50.2906147 M112.413459,42.0465887 C109.424866,42.0465887 107.002571,44.4692944 107.002571,47.4574762 C107.002571,50.445658 109.424866,52.8683636 112.413459,52.8683636 C115.401641,52.8683636 117.823935,50.445658 117.823935,47.4574762 C117.823935,44.4692944 115.401641,42.0465887 112.413459,42.0465887" id="Fill-19"></path>
                        <path d="M88.8630823,46.4210303 L90.0750519,49.1735628 L87.6815455,49.1735628 L88.8630823,46.4210303 Z M86.2170649,52.7424372 L86.8137965,51.4626104 L90.9423896,51.4626104 L91.5391212,52.7424372 L94.3451169,52.7424372 L89.4466537,42.1723506 L88.2947273,42.1723506 L83.4151818,52.7424372 L86.2170649,52.7424372 Z" id="Fill-21"></path>
                        <polygon id="Fill-23" points="105.863106 52.6934567 105.863106 42.2212489 103.241353 42.2212489 103.241353 44.6147554 103.242175 44.6147554 103.242175 52.6934567"></polygon>
                        <path d="M42.8189264,46.8403052 L40.357974,46.8403052 L40.357974,46.8407165 L40.3575628,46.8407165 C40.3575628,46.8407165 40.357974,46.841539 40.357974,46.8419502 L40.357974,46.8485303 L37.2817835,46.8485303 L37.2817835,49.1663658 L39.8842078,49.1663658 C39.3434069,49.942816 38.4456364,50.451539 37.4277792,50.451539 C35.77371,50.451539 34.4334286,49.1108463 34.4334286,47.4575996 C34.4334286,45.8035303 35.77371,44.4632489 37.4277792,44.4632489 C38.3707879,44.4632489 39.2105714,44.9000022 39.7595974,45.5810411 L41.6813939,45.5810411 L41.6813939,45.5806299 L42.6215238,45.5806299 C42.3204848,44.2391147 41.554316,43.3532706 40.6355714,42.7392662 C39.7217619,42.1121017 38.6208312,41.7386818 37.4277792,41.7386818 C34.2689264,41.7386818 31.7084502,44.2987468 31.7084502,47.4575996 C31.7084502,50.6160411 34.2689264,53.1765173 37.4277792,53.1765173 C38.5147273,53.1765173 39.5272381,52.8680758 40.3912857,52.3400238 C40.8802684,52.0862792 41.303039,51.7330108 41.6665887,51.2855649 C41.6711126,51.2802186 41.6768701,51.2752835 41.6813939,51.2703485 L41.6813939,51.2662359 C42.0050519,50.8632056 42.2826494,50.3877944 42.5129524,49.8334221 C42.9163939,48.8624481 42.8703333,47.8598074 42.8189264,46.8403052" id="Fill-25"></path>
                        <path d="M154.554266,44.6161537 C153.925868,44.6009372 153.267448,44.6161537 152.639461,44.6161537 L152.639461,47.2337944 L154.554266,47.2337944 C156.004764,47.2337944 156.080024,44.6305476 154.554266,44.6161537 Z M159.069439,52.6960887 L158.817751,52.6944437 L155.825868,52.6944437 L154.030738,49.6129069 L152.639461,49.6129069 L152.639461,52.6944437 L149.960955,52.6944437 L149.960955,42.2226472 L154.554266,42.2226472 C158.668465,42.2370411 159.416128,47.1889675 156.768465,48.9840974 L159.069439,52.6960887 Z" id="Fill-27"></path>
                        <path d="M177.563307,49.0901602 L177.563307,42.1485801 L180.121727,42.1485801 L180.121727,49.134987 C180.121727,51.4388398 178.132074,52.7700736 175.977918,52.7700736 C173.837745,52.7700736 171.818892,51.4388398 171.818892,49.134987 L171.818892,42.1485801 L174.3769,42.1485801 L174.3769,49.0901602 C174.3769,49.9426926 175.199823,50.3617619 175.977918,50.3617619 C176.755602,50.3617619 177.563307,49.9426926 177.563307,49.0901602" id="Fill-29"></path>
                        <path d="M186.083985,44.5422511 C185.455587,44.5274459 184.782361,44.5422511 184.16918,44.5422511 L184.16918,47.5341342 L186.083985,47.5341342 C187.55011,47.5341342 187.639764,44.5570563 186.083985,44.5422511 Z M181.491084,52.6209524 L181.491084,42.1487446 L186.09879,42.1487446 C191.11076,42.1635498 191.11076,49.9428571 186.09879,49.9428571 L184.16918,49.9428571 L184.16918,52.6209524 L181.491084,52.6209524 Z" id="Fill-31"></path>
                        <path d="M165.054152,50.2926299 C163.489325,50.2926299 162.221013,49.0239069 162.221013,47.4594913 C162.221013,45.8950758 163.489325,44.6267641 165.054152,44.6267641 C166.618978,44.6267641 167.886879,45.8950758 167.886879,47.4594913 C167.886879,49.0239069 166.618978,50.2926299 165.054152,50.2926299 M165.054152,42.0486039 C162.065558,42.0486039 159.643264,44.4713095 159.643264,47.4594913 C159.643264,50.4476732 162.065558,52.8703788 165.054152,52.8703788 C168.042333,52.8703788 170.464628,50.4476732 170.464628,47.4594913 C170.464628,44.4713095 168.042333,42.0486039 165.054152,42.0486039" id="Fill-34"></path>
                        <path d="M148.511567,46.8423203 L146.050615,46.8423203 L146.050615,46.8427316 L146.050615,46.8439654 L146.050615,46.8505455 L142.974424,46.8505455 L142.974424,49.168381 L145.576848,49.168381 C145.036048,49.9448312 144.138277,50.4535541 143.12042,50.4535541 C141.466351,50.4535541 140.126069,49.1128615 140.126069,47.4596147 C140.126069,45.8055455 141.466351,44.4652641 143.12042,44.4652641 C144.063429,44.4652641 144.903212,44.9020173 145.452238,45.5830563 L147.374035,45.5830563 L147.374035,45.582645 L148.314165,45.582645 C148.013126,44.2411299 147.246957,43.3552857 146.328212,42.7412814 C145.414403,42.1141169 144.313472,41.740697 143.12042,41.740697 C139.961978,41.740697 137.401091,44.3007619 137.401091,47.4596147 C137.401091,50.6180563 139.961978,53.1785325 143.12042,53.1785325 C144.207368,53.1785325 145.219879,52.8700909 146.084338,52.342039 C146.572909,52.0882944 146.99568,51.735026 147.359229,51.2875801 C147.364165,51.2822338 147.369511,51.2772987 147.374035,51.2723636 L147.374035,51.2682511 C147.697693,50.8652208 147.97529,50.3898095 148.205593,49.8354372 C148.609035,48.8644632 148.562974,47.8618225 148.511567,46.8423203" id="Fill-36"></path>
                        <path d="M15.5160087,30.5467359 L15.2655541,30.5574286 L18.8344286,22.1690519 L20.7726753,22.5404156 L15.5160087,30.5467359 Z M13.7677619,36.64771 L15.0146883,31.2380563 L15.2384113,31.2277749 L13.7677619,36.64771 Z M10.5871126,47.3395281 L10.5295368,47.5887489 L8.58347619,47.8280996 L10.5373506,31.5460866 L14.2814199,31.2800043 L10.5871126,47.3395281 Z M8.25364935,49.8905455 L8.25693939,49.8716277 C8.27133333,49.8485974 8.27421212,49.8354372 8.28038095,49.8239221 C8.30135498,49.7675801 8.29888745,49.7638788 8.30505628,49.7404372 C8.33302165,49.6088355 8.3905974,49.2535108 8.4477619,48.9088788 C8.46955844,48.7752208 8.49094372,48.6469091 8.50945022,48.5399827 L9.93691775,48.3643766 L8.25364935,49.8905455 Z M7.8777619,47.8548312 C7.3982381,47.8614113 6.52678788,47.8729264 6.03986147,47.8795065 L6.01847619,32.3151342 L9.82341126,31.6435541 L7.8777619,47.8548312 Z M7.72806494,48.9853723 L7.71860606,49.0433593 L7.65239394,49.4352857 L7.65239394,49.4365195 C7.64211255,49.495329 7.63306494,49.5438571 7.62730736,49.5734675 C7.62483983,49.5874502 7.62278355,49.5964978 7.62278355,49.5964978 L7.62525108,49.5969091 L7.52531602,50.1882944 L6.06700433,48.5802857 L7.79633333,48.5737056 C7.77494805,48.7020173 7.75150649,48.8443117 7.72806494,48.9853723 Z M4.14150649,23.904961 L10.9173506,22.5979913 L9.91018615,30.9201558 L9.33854113,31.0209134 L5.68371429,31.6649394 L4.14150649,23.904961 Z M4.91960173,32.75271 L5.00596537,32.7045931 L5.32180952,32.5647662 L5.33291342,40.8980346 L4.91960173,32.75271 Z M1.02748052,25.2012381 L3.48514286,24.1809134 L5.02488312,31.9264978 L4.84475325,32.0066926 L1.02748052,25.2012381 Z M11.6382814,22.4885974 L18.0838874,22.151368 L14.4981515,30.5652424 L10.6224805,30.8411948 L10.6446883,30.6581861 L11.6382814,22.4885974 Z M18.658,21.4230346 L11.71971,21.7865844 L11.4252511,21.7902857 L11.3405325,21.8067359 L11.3360087,21.8067359 L11.0057706,21.869658 L11.0057706,21.8708918 L4.00538095,23.2210433 L4.00373593,23.2111732 L3.95808658,23.2305022 L3.91901732,23.238316 L3.92066234,23.2453074 L0.684082251,24.5888788 L0.682437229,24.5855887 L-0.000246753247,24.8537273 L4.16864935,32.2859351 L4.98622511,48.3931645 L4.99486147,48.3927532 L7.66061905,51.3324069 L8.15618182,50.883316 L8.15494805,50.8820823 L11.0871991,48.223316 L11.0995368,48.2220823 L11.1024156,48.2093333 L11.4408788,47.9025368 L11.4293636,47.8906104 L11.4417013,47.8815628 L16.0021126,31.0768442 L21.9274805,22.0522554 L18.8533463,21.4629264 L18.658,21.4230346 Z M28.5190823,4.23872727 C24.9062035,6.79097835 22.9276537,10.4112597 20.6122857,14.3198312 C20.1249481,15.1431645 19.5491905,16.1511515 18.9035195,17.0427532 C18.2599048,17.9339437 17.5410303,18.69929 16.8270909,19.0468009 C16.6280433,19.1467359 16.3705974,19.2368009 16.0666797,19.3215195 C16.4824589,18.8366494 16.8525887,18.2037273 17.1647316,17.425632 C17.8124589,15.8032294 18.2187792,13.5322771 18.2245368,10.5498528 L18.2245368,10.4955671 C18.2307056,10.3545065 18.2549697,9.9107619 18.2792338,9.48675758 C18.2825238,9.43164935 18.2854026,9.37654113 18.2886926,9.32307792 L18.3405108,9.38723377 L18.3388658,9.10716883 C18.8817229,8.20281818 19.303671,7.29723377 19.7951212,6.46896537 C20.4317446,5.396 21.1720043,4.45299134 22.4522424,3.72424675 C24.1383896,2.76725541 26.0881515,2.451 28.0934329,2.21041558 C29.6257706,2.02452814 31.1873074,1.88552381 32.6768745,1.50881385 C31.3777186,2.54846753 29.8869177,3.27762338 28.5190823,4.23872727 Z M14.3961602,19.6879481 C14.3180216,19.7019307 14.2382381,19.7159134 14.155987,19.7298961 C14.1522857,19.7303074 14.1469394,19.7303074 14.1403593,19.7303074 L14.1214416,19.7298961 L13.772697,19.7298961 L13.772697,19.8002208 C13.0838442,19.9256537 12.3546883,20.0654805 11.6173074,20.236974 C12.8946667,17.6773203 13.3848831,14.4617143 13.3857056,10.3828831 C13.3857056,9.14171429 13.2890606,7.73193074 13.146355,6.56519913 C13.640684,6.136671 14.4582597,5.7344632 15.3338225,5.38612987 C16.112329,5.07357576 16.9356623,4.79515584 17.6401429,4.53030736 C17.6438442,4.68247186 17.6459004,4.82723377 17.6570043,4.93950649 C17.6648182,5.21299134 17.667697,5.47783983 17.667697,5.73980952 C17.667697,6.54628139 17.6376753,7.32890043 17.6376753,8.24065368 C17.6376753,8.28506926 17.6380866,8.32948485 17.6384978,8.37348918 C17.6380866,8.37801299 17.6376753,8.3825368 17.6376753,8.38788312 C17.6376753,8.3944632 17.6380866,8.40104329 17.6384978,8.40762338 C17.6364416,8.49234199 17.60971,8.98132468 17.5829784,9.44727706 C17.555013,9.9485974 17.5270476,10.4240087 17.5262251,10.5375152 C17.5262251,10.546974 17.5262251,10.5560216 17.5278701,10.5732944 C17.5200563,13.4796364 17.1182597,15.6650476 16.5174156,17.1661299 C15.9198615,18.6630996 15.1310736,19.4568225 14.3961602,19.6879481 Z M11.2973506,17.6781429 C10.3317229,18.7079264 9.10782684,20.1349827 7.70667965,20.6914113 C7.4554026,20.7938139 7.1934329,20.8805887 6.9232381,20.9591385 C7.61373593,20.3348528 8.21951515,19.5275584 8.71877922,18.5861948 C9.68728571,16.7544632 10.2634545,14.4053723 10.2638658,11.8416061 C10.2638658,11.6400909 10.2589307,11.4418658 10.2515281,11.2440519 C10.7972641,10.52929 11.15629,9.67799134 11.5486277,8.86535065 C11.8328052,8.27108658 12.1359004,7.70396537 12.5179567,7.21745022 C12.6215931,8.23037229 12.6886277,9.37242857 12.6882165,10.3828831 C12.689039,12.884961 12.4986277,15.0288355 12.0668095,16.873316 C11.8521342,17.079355 11.644039,17.3108918 11.2973506,17.6781429 Z M4.68641991,21.4834892 C4.51780519,21.5221472 4.34795671,21.5616277 4.1764632,21.6043983 L3.97042424,21.6381212 L3.97042424,21.6566277 C3.88899567,21.6776017 3.8075671,21.6993983 3.72572727,21.7216061 C4.39936364,20.0403939 5.07752381,17.9787706 5.39460173,15.7814329 C5.57514286,14.5229913 5.69193939,13.3167792 5.94568398,12.2734242 C6.19901732,11.2271905 6.5818961,10.358619 7.27116017,9.71788312 C7.75274026,9.26385714 8.55509957,8.87604329 9.29988312,8.55115152 C9.40064069,9.42794805 9.33854113,10.2015195 9.52442857,11.2350043 L9.56020779,11.4303506 C9.56349784,11.5668874 9.56637662,11.7038355 9.56637662,11.8416061 C9.56719913,14.3000909 9.01035931,16.5459567 8.10230736,18.259658 C7.21769697,19.9314113 6.00654978,21.0804589 4.68641991,21.4834892 Z M17.6685195,8.53182251 C17.6685195,8.53058874 17.667697,8.52935498 17.667697,8.52894372 L17.667697,8.52935498 C17.6681082,8.53017749 17.6685195,8.531 17.6685195,8.53182251 Z M17.7145801,8.60502597 C17.7158139,8.60708225 17.7170476,8.60872727 17.7178701,8.60996104 L17.7203377,8.61283983 C17.7178701,8.60954978 17.7149913,8.60625974 17.7125238,8.60379221 C17.7133463,8.60420346 17.7137576,8.60461472 17.7145801,8.60502597 Z M17.8145152,8.6905671 C17.8083463,8.68727706 17.803,8.68439827 17.7976537,8.68069697 C17.7943636,8.67822944 17.7910736,8.6757619 17.7877835,8.67370563 C17.7964199,8.6794632 17.8050563,8.68563203 17.8145152,8.6905671 Z M17.9728485,8.73580519 C17.9588658,8.73580519 17.9457056,8.73457143 17.9325455,8.7321039 C17.9309004,8.73169264 17.9296667,8.73169264 17.9284329,8.73087013 C17.9428268,8.73374892 17.957632,8.73498268 17.9728485,8.73580519 Z M33.8390823,0.41117316 L33.7786277,0.433792208 C32.0307922,1.10660606 30.0320909,1.27604329 28.0107706,1.51827273 C25.9902727,1.76255844 23.940987,2.08045887 22.1084329,3.11805628 C20.6953593,3.9175368 19.857632,4.99091342 19.1946883,6.1144632 C18.8899481,6.631 18.6181082,7.15781818 18.3388658,7.68175758 C18.3466797,7.01058874 18.3651861,6.38794805 18.3655974,5.73980952 C18.3655974,5.4679697 18.3618961,5.19160606 18.3532597,4.90537229 L18.3524372,4.88974459 L18.3516147,4.87822944 C18.3442121,4.81654113 18.3392771,4.63682251 18.335987,4.46368398 C18.3318745,4.28561039 18.3294069,4.11493939 18.313368,3.98498268 L18.2562035,3.53671429 L17.8371342,3.70615152 C17.0857706,4.01048052 16.0572208,4.34441991 15.0743203,4.7384026 C14.8839091,4.81571861 14.6947316,4.89467965 14.5096667,4.97569697 C14.4640173,4.99214719 14.4187792,5.00777489 14.3739524,5.02422511 L14.133368,5.11141126 L14.1354242,5.14677922 C13.9639307,5.22861905 13.796961,5.31333766 13.6369827,5.40052381 C13.4975671,5.47619481 13.360619,5.55721212 13.2265498,5.6431645 C13.2105108,5.65385714 13.1944719,5.66413853 13.1784329,5.67483117 C13.1373074,5.70197403 13.0961818,5.72911688 13.0554675,5.75749351 C13.0443636,5.7648961 13.0332597,5.77312121 13.0225671,5.78093506 C12.898368,5.86894372 12.7758139,5.96065368 12.6577835,6.06058874 C11.8360952,6.75602165 11.3475238,7.67476623 10.9198182,8.56390043 C10.6537359,9.11991775 10.4082165,9.66688745 10.1339091,10.1517576 C10.0894935,9.46496104 10.1010087,8.80407359 9.95706926,7.97580519 L9.8801645,7.5431645 L9.84561905,7.5579697 L9.84315152,7.5431645 L9.43970996,7.71630303 C8.58882251,8.08396537 7.49159307,8.531 6.75955844,9.20669264 C5.92964502,9.97985281 5.50029437,10.9981212 5.23133333,12.1093333 C4.96196104,13.2226017 4.84639827,14.4440303 4.66709091,15.6819091 C4.31916883,18.1037922 3.50611688,20.3874935 2.76009957,22.1472554 L2.45535931,22.8648961 L2.49771861,22.8505022 L2.49196104,22.8636623 L3.22975325,22.6132078 C3.61962338,22.4803723 4.01154978,22.3718009 4.40183117,22.2759784 L4.4495368,22.2640519 L4.45447186,22.2628182 L4.46310823,22.2607619 C4.47338961,22.2582944 4.48408225,22.2554156 4.49436364,22.2529481 L4.4992987,22.2517143 C4.58237229,22.2315628 4.66667965,22.2122338 4.75263203,22.1924935 L4.76003463,22.1908485 L4.76620346,22.1887922 C4.79704762,22.1797446 4.82665801,22.1694632 4.85709091,22.1600043 C5.92183117,21.9210649 6.97711255,21.7335325 7.96700433,21.338316 C9.5149697,20.7095065 10.7220043,19.3128831 11.6559654,18.314355 C11.6526753,18.3242251 11.6493853,18.3349177 11.6460952,18.3447879 C11.3232597,19.1730563 10.9366797,20.0177749 10.6154892,20.6071039 L10.5299481,20.7658485 L10.2054675,21.3181645 L10.2334329,21.3107619 L10.2280866,21.3202208 L11.0119394,21.111303 C11.6177186,20.9492684 12.2300779,20.8147879 12.8317446,20.69429 L13.04971,20.650697 L13.0509437,20.6453506 C13.3351212,20.5902424 13.6155974,20.5376017 13.8907273,20.4874286 C14.0465931,20.4602857 14.1991688,20.4319091 14.3492771,20.4051775 L14.4701861,20.383381 L14.4701861,20.3825584 C14.4936277,20.3784459 14.516658,20.3747446 14.5396883,20.370632 L14.5606623,20.3665195 L14.5672424,20.3644632 C15.6130649,20.1707619 16.5079567,19.9762381 17.1351212,19.6723203 C18.0296017,19.2285758 18.7904242,18.3830346 19.4677619,17.4515411 C20.1430433,16.5192251 20.728671,15.4914978 21.2123074,14.6743333 C23.5354892,10.7456104 25.4720909,7.24006926 28.92129,4.80872727 C30.5938658,3.62225541 32.62629,2.75121645 34.2536277,0.996800866 L34.7944286,0.41117316 L33.8390823,0.41117316 Z" id="Fill-38"></path>
                    </g>
                </g>
            </g>
        </g>
    </g>
</svg>