<?xml version="1.0" encoding="UTF-8"?>
<svg width="127px" height="70px" viewBox="0 0 127 70" version="1.1" xmlns="http://www.w3.org/2000/svg" xmlns:xlink="http://www.w3.org/1999/xlink">
    <!-- Generator: Sketch 52.2 (67145) - http://www.bohemiancoding.com/sketch -->
    <title>networking</title>
    <desc>Created with Sketch.</desc>
    <g id="Page-1" stroke="none" stroke-width="1" fill="none" fill-rule="evenodd">
        <g id="SMM" transform="translate(-658.000000, -1236.000000)">
            <g id="Why" transform="translate(148.000000, 1086.000000)">
                <g id="networking" transform="translate(510.000000, 150.000000)">
                    <circle id="Oval-4" fill="#F99229" cx="18" cy="18" r="18"></circle>
                    <circle id="Oval-4" fill="#FFFFFF" cx="18" cy="14" r="7"></circle>
                    <path d="M65.3935937,0.00875 C65.2806641,0.0030078125 65.1670508,0 65.0527539,0 C64.938457,0 64.824707,0.0030078125 64.7119141,0.00875 C59.3843945,0.18921875 55.1053711,4.57666016 55.1053711,9.94738281 C55.1053711,10.1431641 55.1126172,10.3373047 55.1239648,10.5303516 L49.3975,11.8029297 C48.8919141,11.9153125 48.5320703,12.36375 48.5320703,12.8817773 C48.5320703,13.5888867 49.1868164,14.1140234 49.8771094,13.960625 L55.4983008,12.7115625 C55.7628516,13.6221094 56.1537305,14.4796094 56.65125,15.2630078 C56.6591797,15.2766797 56.6645117,15.2911719 56.673125,15.3045703 C58.1451758,17.6028125 60.4435547,19.1594922 63.0469531,19.6913281 C63.0491406,19.6917383 63.0514648,19.6921484 63.0537891,19.692832 C63.1747852,19.7174414 63.2970117,19.7379492 63.4191016,19.7583203 L48.3442187,54.0192188 C47.1702148,53.4031641 45.83625,53.0527539 44.4210742,53.0527539 C42.9229102,53.0527539 41.5153906,53.4451367 40.2929883,54.1300977 L23.5350977,30.3898437 C25.6345508,29.3695117 27.448125,27.7782422 28.7574805,25.7338867 C28.7614453,25.7277344 28.7636328,25.7210352 28.7673242,25.7148828 C30.046875,23.7131836 30.7893945,21.3366016 30.7893945,18.7895312 C30.7893945,18.5938867 30.7841992,18.3991992 30.7755859,18.2054687 L44.493125,15.1571875 C44.9987109,15.0448047 45.3585547,14.5963672 45.3585547,14.0783398 C45.3585547,13.3712305 44.7038086,12.8460937 44.0135156,12.9994922 L30.4858789,16.0056641 C29.1784375,10.0880664 23.7945898,5.68394531 17.4416797,5.90283203 C10.6745117,6.13580078 5.19277344,11.6563672 5.00505859,18.4251758 C4.93068359,21.1096484 5.68167969,23.6181641 7.02193359,25.7150195 C7.02576172,25.7211719 7.02794922,25.7278711 7.03177734,25.7340234 C8.93914062,28.7118945 11.9166016,30.7291797 15.2893164,31.4197461 C15.2950586,31.4209766 15.3006641,31.4220703 15.3064062,31.4233008 C15.3997852,31.4423047 15.4935742,31.4604883 15.5876367,31.4774414 C15.6153906,31.4825 15.6431445,31.4871484 15.6708984,31.4920703 C15.754707,31.5066992 15.8386523,31.5210547 15.9228711,31.5339062 C15.9651172,31.540332 16.0077734,31.5459375 16.0501562,31.5520898 C16.1630859,31.5683594 16.2762891,31.5829883 16.3899023,31.59625 C16.4644141,31.605 16.5390625,31.6136133 16.6138477,31.6209961 C16.6648437,31.6260547 16.7158398,31.630293 16.7669727,31.634668 C16.843125,31.6412305 16.9194141,31.6473828 16.9959766,31.6525781 C17.0445117,31.6559961 17.0930469,31.6590039 17.1417187,31.661875 C17.2256641,31.6667969 17.3100195,31.670625 17.394375,31.6737695 C17.4353906,31.6752734 17.4762695,31.6773242 17.5174219,31.678418 C17.642793,31.6821094 17.7685742,31.6842969 17.8946289,31.6842969 C18.0206836,31.6842969 18.1466016,31.6819727 18.2718359,31.678418 C18.3129883,31.6771875 18.3538672,31.6752734 18.3948828,31.6737695 C18.479375,31.6704883 18.563457,31.6666602 18.6474023,31.661875 C18.6960742,31.6590039 18.7446094,31.6559961 18.7931445,31.6525781 C18.8695703,31.6472461 18.9459961,31.6410937 19.0221484,31.634668 C19.0731445,31.630293 19.1242773,31.625918 19.1752734,31.6209961 C19.2501953,31.6136133 19.324707,31.605 19.3992187,31.59625 C19.512832,31.583125 19.6260352,31.5682227 19.7388281,31.5520898 C19.7812109,31.5459375 19.8238672,31.5404687 19.8661133,31.5339062 C19.9504687,31.520918 20.0342773,31.5066992 20.1180859,31.4920703 C20.1458398,31.4871484 20.1735937,31.4825 20.2013477,31.4774414 C20.2954102,31.4604883 20.3890625,31.4423047 20.4825781,31.4233008 C20.4883203,31.4220703 20.4939258,31.4209766 20.499668,31.4197461 C20.8037305,31.3575391 21.1031445,31.2808398 21.4002344,31.197168 C21.4044727,31.203457 21.4080273,31.2101562 21.4124023,31.2164453 L38.5207031,55.4528516 C36.9351758,56.9933984 35.9473828,59.1461719 35.9473828,61.5263086 C35.9473828,63.1911328 36.4319141,64.7439844 37.2645312,66.0549805 C37.2713672,66.0664648 37.2756055,66.0787695 37.2828516,66.0898438 C38.5369727,68.0479297 40.4951953,69.3739648 42.7131836,69.8267773 C42.7145508,69.8270508 42.7160547,69.8273242 42.7172852,69.8275977 C42.8533203,69.8553516 42.9901758,69.8800977 43.1279883,69.9011523 C43.1329102,69.9018359 43.1376953,69.9025195 43.1426172,69.9032031 C43.2697656,69.9223437 43.3978711,69.9386133 43.5263867,69.9521484 C43.5411523,69.9536523 43.5557813,69.9555664 43.5704102,69.9570703 C43.6971484,69.9697852 43.8244336,69.9792188 43.9522656,69.9861914 C43.9781055,69.9876953 44.0039453,69.9886523 44.0299219,69.9898828 C44.1598047,69.9957617 44.2899609,69.9997266 44.4210742,69.9997266 C44.5520508,69.9997266 44.682207,69.9957617 44.8122266,69.9898828 C44.8382031,69.9886523 44.864043,69.9876953 44.8898828,69.9861914 C45.0178516,69.9792188 45.1451367,69.9696484 45.2717383,69.9570703 C45.2865039,69.9555664 45.3009961,69.9536523 45.3157617,69.9521484 C45.4444141,69.93875 45.5723828,69.9224805 45.6995313,69.9032031 C45.7044531,69.9025195 45.7092383,69.9018359 45.7141602,69.9011523 C45.8519727,69.8800977 45.9888281,69.8553516 46.1248633,69.8275977 C46.1262305,69.8273242 46.1277344,69.8270508 46.1289648,69.8267773 C48.3470898,69.3739648 50.3051758,68.0479297 51.5592969,66.0898438 C51.566543,66.0786328 51.5707813,66.0663281 51.5776172,66.0549805 C52.4102344,64.7439844 52.8947656,63.1909961 52.8947656,61.5263086 C52.8947656,59.0786328 51.8503711,56.8714453 50.1854102,55.3231055 L65.7870703,19.8648242 C65.8749805,19.8585352 65.9634375,19.8534766 66.0508008,19.8447266 C66.0974219,19.8400781 66.1430859,19.8321484 66.1924414,19.8363867 C66.3090625,19.845957 66.4208984,19.8210742 66.5325977,19.7860742 C66.5450391,19.7822461 66.5578906,19.7810156 66.5707422,19.7791016 C66.7320703,19.7544922 66.8924414,19.7255078 67.0517187,19.6931055 C67.0539062,19.6926953 67.0562305,19.6920117 67.0585547,19.6916016 C69.6619531,19.1597656 71.960332,17.6030859 73.4323828,15.3048438 C73.4409961,15.2914453 73.4461914,15.2768164 73.4542578,15.2632813 C74.4313867,13.7242383 75,11.9015039 75,9.94751953 C75,4.57679687 70.7211133,0.189355469 65.3935937,0.00875 Z M28.5790625,18.7895313 C28.5790625,20.453125 28.1965234,22.0289453 27.5152539,23.4342773 C26.2132812,22.4803906 24.6030078,21.7412891 22.8126758,21.2625 C24.963125,19.7241406 26.368457,17.2081055 26.368457,14.368457 C26.368457,13.4762305 26.2288672,12.6162695 25.9722461,11.8079883 C27.5942773,13.6821289 28.5790625,16.1221484 28.5790625,18.7895313 Z M17.5729297,8.1134375 C17.6801172,8.11029297 17.7868945,8.10537109 17.8947656,8.10537109 C18.0026367,8.10537109 18.1094141,8.11042969 18.2166016,8.1134375 C21.5212305,8.28160156 24.1578516,11.0229492 24.1578516,14.368457 C24.1578516,17.8221094 21.3482812,20.6316797 17.8946289,20.6316797 C14.4409766,20.6316797 11.6314062,17.8221094 11.6314062,14.368457 C11.6316797,11.0229492 14.2683008,8.28160156 17.5729297,8.1134375 Z M8.27441406,23.4342773 C7.59314453,22.0289453 7.21060547,20.453125 7.21060547,18.7895313 C7.21060547,16.1221484 8.19525391,13.6819922 9.81742187,11.8079883 C9.56066406,12.6162695 9.42121094,13.4763672 9.42121094,14.368457 C9.42121094,17.2081055 10.8266797,19.7241406 12.9771289,21.2625 C11.1866602,21.7412891 9.57625,22.4803906 8.27441406,23.4342773 Z M19.5348437,29.3477734 C19.5266406,29.3491406 19.5184375,29.3503711 19.5102344,29.3517383 C19.3478125,29.3764844 19.1841602,29.3969922 19.0194141,29.4142187 C18.9960352,29.4166797 18.9726562,29.4191406 18.9492773,29.4213281 C18.7894531,29.4370508 18.6285352,29.4494922 18.4667969,29.4582422 C18.4447852,29.4594727 18.4227734,29.4600195 18.400625,29.4609766 C18.2330078,29.4687695 18.0644336,29.4738281 17.8949023,29.4738281 C17.7253711,29.4738281 17.5566602,29.4687695 17.389043,29.4609766 C17.3670312,29.4598828 17.3450195,29.4593359 17.3228711,29.4582422 C17.1609961,29.4496289 17.0003516,29.4371875 16.8403906,29.4213281 C16.8170117,29.4190039 16.7934961,29.4168164 16.7702539,29.4142187 C16.6055078,29.3969922 16.4417187,29.3763477 16.2794336,29.3517383 C16.2712305,29.3505078 16.2630273,29.3491406 16.2548242,29.3477734 C13.4950195,28.9208008 11.0828906,27.4324805 9.44445312,25.3160742 C11.4781445,23.7547461 14.5558203,22.8421484 17.8950391,22.8421484 C21.2342578,22.8421484 24.3119336,23.7546094 26.3454883,25.3159375 C24.7069141,27.4324805 22.2946484,28.9206641 19.5348437,29.3477734 Z M44.2411523,55.2678711 C44.3011719,55.2662305 44.3606445,55.2633594 44.4210742,55.2633594 C44.4815039,55.2633594 44.5409766,55.2663672 44.6009961,55.2678711 C46.4476562,55.3617969 47.9210742,56.8937305 47.9210742,58.7633594 C47.9210742,60.6932813 46.3509961,62.2633594 44.4210742,62.2633594 C42.4911523,62.2633594 40.9210742,60.6932813 40.9210742,58.7633594 C40.9210742,56.8937305 42.3946289,55.3616602 44.2411523,55.2678711 Z M38.1579883,61.5264453 C38.1579883,60.6076953 38.358418,59.7354297 38.7153906,58.9486133 C38.765293,60.5021484 39.4382227,61.9003711 40.4925977,62.9018359 C39.7995703,63.1420508 39.1601367,63.4474805 38.5900195,63.8080078 C38.312207,63.1004883 38.1579883,62.3313086 38.1579883,61.5264453 Z M46.5758984,67.4074023 C46.5724805,67.4087695 46.5690625,67.4098633 46.5656445,67.4110937 C46.4760937,67.4437695 46.3854492,67.4745312 46.2938477,67.5032422 C46.2793555,67.5077539 46.265,67.5119922 46.2505078,67.5162305 C46.1684766,67.5413867 46.085625,67.5651758 46.0022266,67.5869141 C45.97625,67.59375 45.95,67.5996289 45.9241602,67.605918 C45.850332,67.6242383 45.7762305,67.641875 45.7013086,67.6574609 C45.6634375,67.6652539 45.6251562,67.6716797 45.5871484,67.6789258 C45.5223437,67.6910937 45.4574023,67.7036719 45.3919141,67.7137891 C45.3414648,67.721582 45.2904687,67.7274609 45.2397461,67.7341602 C45.1847852,67.7414062 45.1299609,67.7494727 45.0745898,67.7552148 C45.0085547,67.7620508 44.9421094,67.7662891 44.8756641,67.7710742 C44.8339648,67.774082 44.7925391,67.778457 44.7507031,67.7806445 C44.6413281,67.78625 44.531543,67.7893945 44.4212109,67.7893945 C44.3108789,67.7893945 44.2010937,67.78625 44.0917187,67.7806445 C44.0497461,67.778457 44.008457,67.7742187 43.9667578,67.7710742 C43.9003125,67.7664258 43.8338672,67.7619141 43.767832,67.7552148 C43.7124609,67.7494727 43.6577734,67.7414062 43.6026758,67.7341602 C43.5518164,67.7274609 43.500957,67.721582 43.4505078,67.7137891 C43.3848828,67.7035352 43.3200781,67.6910937 43.2552734,67.6789258 C43.2172656,67.6716797 43.1789844,67.6653906 43.1411133,67.6574609 C43.0661914,67.641875 42.9920898,67.6241016 42.9182617,67.605918 C42.8921484,67.5996289 42.8658984,67.59375 42.8401953,67.5869141 C42.7566602,67.5650391 42.6739453,67.5413867 42.5919141,67.5162305 C42.5774219,67.5118555 42.5629297,67.5076172 42.5485742,67.5032422 C42.4571094,67.4745312 42.3664648,67.4439062 42.2767773,67.4110937 C42.2733594,67.4098633 42.2699414,67.4087695 42.2663867,67.4074023 C41.2891211,67.0482422 40.4262891,66.4514648 39.74625,65.6881641 C40.9380273,64.925957 42.6388086,64.4736914 44.4212109,64.4736914 C46.2036133,64.4736914 47.9043945,64.925957 49.0961719,65.6881641 C48.4159961,66.4514648 47.5531641,67.0482422 46.5758984,67.4074023 Z M50.6842969,61.5264453 C50.6842969,62.3313086 50.5299414,63.1004883 50.2522656,63.8080078 C49.6824219,63.4474805 49.0428516,63.1420508 48.3496875,62.9018359 C49.4040625,61.9005078 50.0769922,60.5022852 50.1268945,58.9486133 C50.4838672,59.7354297 50.6842969,60.6076953 50.6842969,61.5264453 Z M65.0526172,2.21060547 C67.4904492,2.21060547 69.4736914,4.19384766 69.4736914,6.63167969 C69.4736914,9.06951172 67.4904492,11.0527539 65.0526172,11.0527539 C62.6147852,11.0527539 60.631543,9.06951172 60.631543,6.63167969 C60.6316797,4.19384766 62.6149219,2.21060547 65.0526172,2.21060547 Z M57.3158398,9.94751953 C57.3158398,8.46453125 57.7359766,7.07820313 58.4623633,5.89996094 C58.4358398,6.14044922 58.4210742,6.38435547 58.4210742,6.63181641 C58.4210742,8.65730469 59.3347656,10.4723828 60.7704492,11.6898633 C59.7241406,12.0175781 58.7680664,12.4636914 57.9510352,13.0143945 C57.5432031,12.0732227 57.3158398,11.0366211 57.3158398,9.94751953 Z M67.7256055,17.207832 C67.7172656,17.2109766 67.7087891,17.2141211 67.7004492,17.2172656 C67.5998242,17.254043 67.4976953,17.2880859 67.3951562,17.3208984 C67.3663086,17.3300586 67.3375977,17.3392188 67.3084766,17.3479687 C67.2191992,17.3751758 67.1292383,17.4007422 67.0385938,17.4248047 C66.9940234,17.4365625 66.9495898,17.4476367 66.9048828,17.4587109 C66.8251758,17.4783984 66.7451953,17.4971289 66.6643945,17.5143555 C66.6064258,17.5265234 66.5481836,17.5374609 66.4898047,17.5483984 C66.4187109,17.5617969 66.3478906,17.5751953 66.27625,17.5866797 C66.2054297,17.5978906 66.1339258,17.6070508 66.0625586,17.6163477 C66.000625,17.6244141 65.9391016,17.6334375 65.8768945,17.6401367 C65.7898047,17.6494336 65.7020312,17.6555859 65.6142578,17.661875 C65.5654492,17.6654297 65.5173242,17.6704883 65.4682422,17.6729492 C65.330293,17.680332 65.1917969,17.6844336 65.0524805,17.6844336 C64.9131641,17.6844336 64.774668,17.680332 64.6367188,17.6729492 C64.5877734,17.6703516 64.5395117,17.665293 64.4907031,17.661875 C64.4030664,17.6555859 64.3151563,17.6492969 64.2280664,17.6401367 C64.1657227,17.6334375 64.1040625,17.6245508 64.0424023,17.6163477 C63.9710352,17.6070508 63.899668,17.5978906 63.8287109,17.5866797 C63.7570703,17.5751953 63.6861133,17.5617969 63.6151563,17.5483984 C63.5567773,17.5374609 63.4983984,17.5265234 63.4405664,17.5143555 C63.3599023,17.4971289 63.2797852,17.4783984 63.2000781,17.4587109 C63.1553711,17.4477734 63.1108008,17.4365625 63.0663672,17.4248047 C62.9757227,17.4007422 62.8858984,17.3753125 62.7964844,17.3479687 C62.7675,17.339082 62.7386523,17.3299219 62.7098047,17.3208984 C62.6072656,17.2882227 62.5051367,17.2541797 62.4045117,17.2172656 C62.3961719,17.2141211 62.3876953,17.2109766 62.3793555,17.207832 C61.09625,16.7339648 59.9725586,15.9288281 59.1115039,14.8971484 C60.5858789,13.8751758 62.7669531,13.2632227 65.0526172,13.2632227 C67.3382812,13.2632227 69.5193555,13.8750391 70.993457,14.8971484 C70.1325391,15.9288281 69.0087109,16.7341016 67.7256055,17.207832 Z M72.1541992,13.0142578 C71.337168,12.463418 70.3810938,12.0173047 69.3347852,11.6897266 C70.7706055,10.4723828 71.6842969,8.65716797 71.6842969,6.63167969 C71.6842969,6.38421875 71.6695313,6.1403125 71.6430078,5.89982422 C72.3693945,7.07820312 72.7895312,8.46453125 72.7895312,9.94738281 C72.7895312,11.0366211 72.562168,12.0732227 72.1541992,13.0142578 Z" id="Shape" fill="#000000" fill-rule="nonzero"></path>
                    <path d="M46.0108008,40.2579567 C45.9397538,40.2017423 45.8709469,40.1445509 45.8043766,40.0863665 C44.641064,39.0775563 44.0371094,37.7422505 44.0371094,36.1894531 C44.0371094,35.1581884 44.3373134,34.1796609 44.9200932,33.285472 C45.5145021,32.37344 46.3869742,31.6736908 47.4996318,31.1871675 C48.5719032,30.7183036 49.940572,30.5 51.6210938,30.5 C53.735011,30.5 55.4242035,30.9119501 56.6728052,31.7965526 C58.0035358,32.7393415 58.7776108,34.2058937 59.0083464,36.0847412 L59.2032202,37.6715702 L57.6387185,37.7631687 C58.0669773,38.1317597 58.4228343,38.5465197 58.7014756,39.0085404 C59.2255456,39.8775111 59.4882812,40.8521033 59.4882812,41.9023438 C59.4882812,43.1131808 59.1486753,44.2452007 58.4810875,45.2637 C57.8109442,46.2860981 56.8733382,47.0624187 55.7009422,47.5774355 C54.5809243,48.0694433 53.2306611,48.3046875 51.6503906,48.3046875 C48.8560393,48.3046875 46.8071516,47.7351125 45.5311367,46.4590977 C44.3371507,45.2651117 43.6586093,43.7415157 43.5054637,41.9521295 L43.3746009,40.4231015 L46.0108008,40.2579567 Z M69.1418164,38.9584943 L75.420482,40.8563278 L75.0909291,42.2322112 C74.7836509,43.5150978 74.2866723,44.6155504 73.5914463,45.520961 C72.880302,46.4471024 71.987066,47.1541604 70.9289559,47.6271979 C69.8868418,48.0930842 68.6265921,48.3144531 67.1478147,48.3144531 C65.391535,48.3144531 63.912294,48.0511823 62.7088913,47.4991263 C61.4407169,46.9173565 60.3743149,45.9202808 59.5106724,44.5463042 C58.6318578,43.14819 58.2064085,41.415451 58.2064085,39.3730469 C58.2064085,36.633928 58.9678502,34.4322399 60.5299576,32.8539867 C62.093583,31.2741998 64.2617384,30.5 66.9427366,30.5 C69.0331204,30.5 70.7486834,30.941201 72.0612979,31.8687267 C73.3726574,32.7953656 74.3223519,34.1826052 74.9191084,35.9806247 L75.4421895,37.5566613 L69.1418164,38.9584943 Z M88.2823787,40.5096664 C88.3013945,40.5330032 88.3206005,40.5567205 88.3400056,40.5808237 C88.7111068,41.0417704 88.9703086,41.413225 89.1251076,41.7230711 L92.3907716,48.0605469 L84.0358069,48.0605469 L83.6106355,47.2734527 L81.7917232,43.9061141 L81.7917232,48.0605469 L74.3483638,48.0605469 L74.3483638,30.7441406 L83.2214107,30.7441406 C84.7320104,30.7441406 85.9202364,30.8773996 86.8189334,31.1688689 C87.8541696,31.5046212 88.7057348,32.1397271 89.3345513,33.0413391 C89.9610737,33.9396616 90.2682857,35.0126447 90.2682857,36.21875 C90.2682857,37.2692211 90.0342858,38.2164706 89.55375,39.0343055 C89.2194561,39.603248 88.7935234,40.0966558 88.2823787,40.5096664 Z M80.381567,36.6347656 L81.7917232,38.0449219 L81.7917232,36.6347656 L82.2350826,36.6347656 C82.5358081,36.6347656 82.768161,36.6559391 82.9240877,36.6909996 C82.9817219,36.7039587 82.9767582,36.701774 82.917702,36.6519042 C82.8575434,36.6011037 82.8286952,36.5372551 82.8252735,36.5636623 C82.8276466,36.5462096 82.84181,36.5064143 82.8582673,36.4850486 C82.8920035,36.4412506 82.9668841,36.3938529 83.0301092,36.3797028 C82.525743,36.4925599 82.211406,36.5449219 82.1569576,36.5449219 L81.7917232,36.5449219 L81.7917232,35.1347656 L80.381567,36.5449219 L80.2917232,36.5449219 L80.3366451,36.5898438 L80.2917232,36.6347656 L80.381567,36.6347656 Z M98.830163,30.7441406 L106.244225,30.7441406 L106.244225,40.7792969 C106.244225,41.7921619 106.084708,42.759113 105.764218,43.6731022 C105.426099,44.6373687 104.891429,45.4877888 104.169143,46.2100742 C103.459228,46.9199899 102.687547,47.4365699 101.858035,47.7421747 C100.818612,48.1280209 99.6125099,48.3144531 98.2403192,48.3144531 C97.4818912,48.3144531 96.6632964,48.2618667 95.7834176,48.1575333 C94.7894221,48.0396682 93.9272104,47.7971075 93.1988977,47.4158143 C92.4719506,47.0352362 91.8177833,46.5030679 91.2386465,45.8294619 C90.6479324,45.1423903 90.229005,44.4087246 89.9969391,43.6321937 C89.684186,42.5896832 89.5235223,41.6410025 89.5235223,40.7792969 L89.5235223,30.7441406 L96.9375848,30.7441406 L96.9375848,40.984375 C96.9375848,41.3941663 97.0192194,41.6243389 97.1555447,41.7627142 C97.2875084,41.8966623 97.5005637,41.9746094 97.8887567,41.9746094 C98.2739819,41.9746094 98.4873321,41.8972917 98.6200887,41.7645351 C98.7489268,41.6356971 98.830163,41.4054261 98.830163,40.984375 L98.830163,30.7441406 Z M109.757275,33.7441406 L109.757275,23.7264851 L112.039427,32.6476255 L113.45454,33.7441406 L112.319931,33.7441406 L115.214825,45.0605469 L116.158154,45.0605469 L119.063171,33.7441406 L117.936962,33.7441406 L119.343193,32.6533248 L121.624462,23.7667072 L121.624462,33.7441406 L119.100515,33.7441406 L116.195294,45.0605469 L117.321728,45.0605469 L115.915186,46.1516231 L115.703799,46.9750177 L115.50048,46.1864929 L114.050243,45.0605469 L115.210157,45.0605469 L112.29225,33.7441406 L109.757275,33.7441406 Z M112.039427,32.6476255 L112.319931,33.7441406 L112.29225,33.7441406 L112.002048,32.6186622 L112.039427,32.6476255 Z M115.214825,45.0605469 L115.503447,46.188797 L115.50048,46.1864929 L115.210157,45.0605469 L115.214825,45.0605469 Z M116.158154,45.0605469 L116.195294,45.0605469 L115.915186,46.1516231 L115.868836,46.1875774 L116.158154,45.0605469 Z M119.063171,33.7441406 L119.343193,32.6533248 L119.389847,32.6171347 L119.100515,33.7441406 L119.063171,33.7441406 Z M115.697469,34.9351386 L116.773409,30.7441406 L125.237743,30.7441406 L125.237743,48.0605469 L118.624462,48.0605469 L118.624462,47.5184491 L118.485301,48.0605469 L112.885661,48.0605469 L112.757275,47.5586711 L112.757275,48.0605469 L106.134228,48.0605469 L106.134228,30.7441406 L114.616831,30.7441406 L115.697469,34.9351386 Z" id="SCRUM" stroke="#FFFFFF" stroke-width="3" fill="#F99229"></path>
                </g>
            </g>
        </g>
    </g>
</svg>