<?xml version="1.0" encoding="UTF-8"?>
<svg width="66px" height="67px" viewBox="0 0 66 67" version="1.1" xmlns="http://www.w3.org/2000/svg" xmlns:xlink="http://www.w3.org/1999/xlink">
    <!-- Generator: Sketch 52.2 (67145) - http://www.bohemiancoding.com/sketch -->
    <title>cubes</title>
    <desc>Created with Sketch.</desc>
    <g id="Page-1" stroke="none" stroke-width="1" fill="none" fill-rule="evenodd">
        <g id="SMM" transform="translate(-1080.000000, -664.000000)" fill="#F99229" fill-rule="nonzero">
            <g id="Screen_1" transform="translate(-336.000000, -477.000000)">
                <g id="3" transform="translate(1335.000000, 1141.000000)">
                    <g id="cubes" transform="translate(81.000000, 0.000000)">
                        <path d="M29.669,21.4734493 C29.371,20.9646268 28.7148571,20.7929347 28.2038571,21.0889898 L20.7784286,25.3928044 C20.2671429,25.6891438 20.0941429,26.3418011 20.392,26.8504815 C20.5911429,27.1904546 20.95,27.380055 21.3187143,27.380055 C21.5018571,27.380055 21.6874286,27.3332944 21.8571429,27.234941 L29.2825714,22.9311265 C29.7938571,22.6347871 29.9668571,21.9821298 29.669,21.4734493 Z" id="Shape"></path>
                        <path d="M36.7172857,22.9311265 L44.1427143,27.2347989 C44.3124286,27.3330102 44.4978571,27.3799128 44.6811429,27.3799128 C45.0498571,27.3799128 45.4088571,27.1903125 45.6078571,26.8503394 C45.9057143,26.341659 45.7327143,25.6890016 45.2214286,25.3926622 L37.796,21.0889898 C37.2847143,20.7927925 36.6288571,20.9646268 36.3308571,21.4734493 C36.033,21.9821298 36.206,22.6347871 36.7172857,22.9311265 Z" id="Shape"></path>
                        <path d="M20.793,50.6547077 L28.204,54.9502788 C28.3737143,55.0486322 28.5591429,55.0953927 28.7424286,55.0953927 C29.1111429,55.0953927 29.4701429,54.9057924 29.6691429,54.5658193 C29.967,54.0571389 29.794,53.4044815 29.2827143,53.1081421 L21.8717143,48.8125711 C21.3604286,48.5158053 20.7045714,48.6883501 20.4065714,49.1970306 C20.1087143,49.7058531 20.2817143,50.3583683 20.793,50.6547077 Z" id="Shape"></path>
                        <path d="M45.5937143,49.1968884 C45.2957143,48.6880659 44.6397143,48.5163738 44.1285714,48.8124289 L36.7175714,53.108 C36.2062857,53.4043394 36.0332857,54.0569967 36.3311429,54.5656772 C36.5302857,54.9056502 36.8891429,55.0952506 37.2578571,55.0952506 C37.441,55.0952506 37.6265714,55.0484901 37.7962857,54.9501367 L45.2072857,50.6545656 C45.7185714,50.3582262 45.8915714,49.7055689 45.5937143,49.1968884 Z" id="Shape"></path>
                        <path d="M13.7298571,49.1886449 C13.4318571,48.6798224 12.7757143,48.5081303 12.2647143,48.8041854 L4.85371429,53.0997565 C4.34242857,53.3960959 4.16942857,54.0487532 4.46728571,54.5574337 C4.66642857,54.8974067 5.02528571,55.0870071 5.394,55.0870071 C5.57714286,55.0870071 5.76271429,55.0402466 5.93242857,54.9418932 L13.3434286,50.6463221 C13.8547143,50.3499827 14.0277143,49.6973254 13.7298571,49.1886449 Z" id="Shape"></path>
                        <path d="M61.1462857,53.0998986 L53.764,48.8210988 C53.2527143,48.5244752 52.5967143,48.6967358 52.2988571,49.2055583 C52.001,49.7142388 52.174,50.3668961 52.6852857,50.6632355 L60.0675714,54.9420353 C60.2372857,55.0403887 60.4227143,55.0871492 60.606,55.0871492 C60.9747143,55.0871492 61.3337143,54.8975489 61.5327143,54.5575758 C61.8305714,54.0487532 61.6577143,53.396238 61.1462857,53.0998986 Z" id="Shape"></path>
                        <path d="M65.9488571,38.0087614 C65.948,37.9239103 65.9368571,37.8387749 65.9152857,37.7547765 C65.9125714,37.7445432 65.9095714,37.7345942 65.9065714,37.724503 C65.8975714,37.6935188 65.887,37.6628189 65.875,37.6322611 C65.8708571,37.6214593 65.8668571,37.6107996 65.8622857,37.6001399 C65.8477143,37.5663132 65.8312857,37.533055 65.8128571,37.5002231 C65.8102857,37.495675 65.8082857,37.4907005 65.8055714,37.4861523 C65.7827143,37.4467825 65.7594286,37.4129558 65.735,37.3802661 C65.7292857,37.3725911 65.723,37.3654846 65.717,37.3580939 C65.6958571,37.3315157 65.6737143,37.3060746 65.6504286,37.2819126 C65.6428571,37.2740955 65.6352857,37.2664206 65.6274286,37.2587456 C65.601,37.2330202 65.5737143,37.2087161 65.545,37.1861176 C65.5401429,37.1822801 65.5357143,37.1781583 65.5308571,37.174463 C65.4961429,37.1480269 65.4601429,37.123865 65.4228571,37.1019771 C65.4172857,37.0982817 50.0102857,28.1681614 50.0102857,28.1681614 L50.0102857,10.3043676 C50.0102857,10.3006722 50.0095714,10.2972611 50.0095714,10.2935658 C50.0087143,10.2087146 49.9975714,10.1235793 49.976,10.0395809 C49.9732857,10.0293476 49.9702857,10.0193985 49.9672857,10.0093074 C49.9582857,9.9783232 49.9477143,9.94762329 49.9357143,9.91706551 C49.9315714,9.90626369 49.9275714,9.895604 49.923,9.88494431 C49.9084286,9.85111756 49.892,9.81785933 49.8735714,9.78502748 C49.871,9.78047934 49.869,9.77550482 49.8662857,9.77095669 C49.8434286,9.73144477 49.8201429,9.69761802 49.7955714,9.6649283 C49.79,9.65753758 49.7838571,9.65057325 49.7781429,9.64332466 C49.7567143,9.61632011 49.7342857,9.59059472 49.7108571,9.56629063 C49.7035714,9.55875778 49.6962857,9.55136706 49.6887143,9.54411847 C49.6618571,9.51782457 49.6338571,9.49295196 49.6045714,9.46992702 C49.6004286,9.46665805 49.5965714,9.46296269 49.5922857,9.45983585 C49.5572857,9.43297343 49.5208571,9.40866934 49.4831429,9.38649718 C49.4784286,9.38337034 33.5392857,0.144971793 33.5392857,0.144971793 C33.2058571,-0.0481818016 32.794,-0.0481818016 32.4605714,0.144971793 L16.5215714,9.38337034 C16.4791429,9.40866934 16.4424286,9.43325769 16.4071429,9.46012011 C16.4032857,9.46310482 16.3997143,9.46637379 16.3958571,9.46950064 C16.3662857,9.49280983 16.338,9.51782457 16.3108571,9.54440273 C16.3034286,9.55165132 16.2962857,9.55889991 16.289,9.56643276 C16.2654286,9.59087898 16.243,9.6167465 16.2215714,9.64375105 C16.2158571,9.65099964 16.2097143,9.65782184 16.2041429,9.66521256 C16.1795714,9.69790227 16.1562857,9.73172903 16.1351429,9.76782985 C16.1307143,9.77578908 16.1287143,9.78062147 16.1261429,9.78531174 C16.1077143,9.81814359 16.0912857,9.85140182 16.0767143,9.88522857 C16.0721429,9.89574613 16.0681429,9.90654795 16.064,9.91734977 C16.052,9.94776542 16.0414286,9.97846533 16.0324286,10.0095916 C16.0294286,10.0196828 16.0264286,10.0296318 16.0238571,10.0398652 C16.0021429,10.1238635 15.991,10.2089989 15.9902857,10.29385 C15.9902857,10.2974033 15.9895714,10.3009565 15.9895714,10.3046519 L15.9895714,28.1687299 L0.582571429,37.098566 C0.539714286,37.1241492 0.503571429,37.1483112 0.468857143,37.1748894 C0.464142857,37.1785847 0.459714286,37.1825643 0.455,37.1862597 C0.426285714,37.2090004 0.398857143,37.2333045 0.372428571,37.2590298 C0.364714286,37.2665627 0.357,37.2742377 0.349571429,37.2820548 C0.326285714,37.3062167 0.304142857,37.3316579 0.283,37.358236 C0.277,37.3657689 0.270714286,37.3728753 0.265,37.3805503 C0.240571429,37.4130979 0.217285714,37.4469247 0.196142857,37.4828833 C0.191714286,37.4908426 0.189714286,37.495675 0.187142857,37.5003652 C0.168714286,37.5331971 0.152285714,37.5664553 0.137714286,37.6002821 C0.133142857,37.6107996 0.129142857,37.6216015 0.125,37.6324033 C0.113,37.6628189 0.102428571,37.6935188 0.0934285714,37.7246451 C0.0904285714,37.7347363 0.0874285714,37.7446854 0.0848571429,37.7549187 C0.0631428571,37.838917 0.052,37.9240524 0.0512857143,38.0089035 C0.0512857143,38.0124568 0.0505714286,38.01601 0.0505714286,38.0197054 L0.0505714286,56.4965025 C0.0505714286,56.8758453 0.253285714,57.2266202 0.582714286,57.4174997 L16.5217143,66.6558983 C16.5247143,66.6576038 16.528,66.6587409 16.531,66.6604464 C16.5692857,66.6821922 16.6088571,66.7020903 16.65,66.7191458 C16.69,66.7356328 16.7302857,66.7487086 16.7714286,66.7602211 C16.7815714,66.7630637 16.7918571,66.7654799 16.8021429,66.7680382 C16.8342857,66.7759975 16.867,66.7823933 16.9002857,66.7873678 C16.9112857,66.7890733 16.922,66.7910631 16.933,66.7923423 C16.9751429,66.7973168 17.0177143,66.8007279 17.0611429,66.8007279 C17.1045714,66.8007279 17.1472857,66.797459 17.1892857,66.7923423 C17.2002857,66.7910631 17.211,66.7890733 17.222,66.7873678 C17.2552857,66.7823933 17.288,66.7759975 17.3201429,66.7680382 C17.3304286,66.7654799 17.3407143,66.7630637 17.3508571,66.7602211 C17.392,66.7487086 17.4322857,66.7356328 17.4712857,66.7195722 C17.5132857,66.7022324 17.5528571,66.6823343 17.5911429,66.6604464 C17.5941429,66.6587409 17.5974286,66.6576038 17.6004286,66.6558983 L33,57.7300419 L48.3997143,66.6558983 C48.4027143,66.6576038 48.406,66.6587409 48.409,66.6604464 C48.4472857,66.6821922 48.4867143,66.7020903 48.5278571,66.7191458 C48.568,66.7356328 48.6081429,66.7487086 48.6491429,66.7602211 C48.6594286,66.7630637 48.6697143,66.765622 48.68,66.7681803 C48.7121429,66.7761396 48.7447143,66.7825354 48.778,66.7875099 C48.789,66.7892155 48.7998571,66.7912053 48.8108571,66.7924844 C48.853,66.797459 48.8955714,66.8008701 48.939,66.8008701 C48.9824286,66.8008701 49.025,66.7976011 49.0671429,66.7924844 C49.0781429,66.7912053 49.089,66.7892155 49.1,66.7875099 C49.1331429,66.7825354 49.1658571,66.7761396 49.198,66.7681803 C49.2082857,66.765622 49.2185714,66.7632058 49.2288571,66.7602211 C49.2698571,66.7487086 49.3101429,66.7356328 49.349,66.7195722 C49.3912857,66.7020903 49.4307143,66.6821922 49.469,66.6604464 C49.472,66.6587409 49.4752857,66.6576038 49.4782857,66.6558983 L65.4172857,57.4174997 C65.7467143,57.2264781 65.9494286,56.8757032 65.9494286,56.4965025 L65.9494286,38.0197054 C65.9494286,38.0158679 65.9488571,38.0124568 65.9488571,38.0087614 Z M62.7495714,38.0195632 L48.939,46.0242803 L35.1284286,38.0195632 L48.939,30.0148462 L62.7495714,38.0195632 Z M18.1324286,12.1590116 L31.9285714,20.155343 L31.9285714,36.1647771 L18.1324286,28.1684457 L18.1324286,12.1590116 Z M47.8675714,28.1684457 L34.0714286,36.1649192 L34.0714286,20.1554852 L47.8675714,12.1591538 L47.8675714,28.1684457 Z M31.9285714,55.8836413 L18.1324286,63.8801148 L18.1324286,47.8706808 L31.9285714,39.8743494 L31.9285714,55.8836413 Z M34.0714286,39.8742073 L47.8675714,47.8705387 L47.8675714,63.8799727 L34.0714286,55.8836413 L34.0714286,39.8742073 Z M33,2.29965059 L46.8105714,10.3043676 L33,18.3090846 L19.1894286,10.3043676 L33,2.29965059 Z M17.061,30.0148462 L30.8715714,38.0195632 L17.061,46.0242803 L3.25042857,38.0195632 L17.061,30.0148462 Z M2.19342857,39.8742073 L15.9895714,47.8705387 L15.9895714,63.8799727 L2.19342857,55.8834992 L2.19342857,39.8742073 Z M50.0104286,63.8801148 L50.0104286,47.8706808 L63.8065714,39.8743494 L63.8065714,55.8837834 L50.0104286,63.8801148 Z" id="Shape"></path>
                    </g>
                </g>
            </g>
        </g>
    </g>
</svg>