<?xml version="1.0" encoding="UTF-8"?>
<svg width="26px" height="15px" viewBox="0 0 26 15" version="1.1" xmlns="http://www.w3.org/2000/svg" xmlns:xlink="http://www.w3.org/1999/xlink">
    <!-- Generator: Sketch 52.4 (67378) - http://www.bohemiancoding.com/sketch -->
    <title>Shape</title>
    <desc>Created with Sketch.</desc>
    <g id="Page-1" stroke="none" stroke-width="1" fill="none" fill-rule="evenodd">
        <g id="SMM" transform="translate(-733.000000, -9170.000000)" fill="#FFFFFF">
            <path d="M757.922905,9182.1488 C758.264612,9182.56875 758.588087,9183.00207 758.835594,9183.48943 C759.186289,9184.18221 758.868653,9184.94457 758.25933,9184.98593 L754.471567,9184.98417 C753.49464,9185.0668 752.715302,9184.66589 752.060022,9183.98491 C751.535606,9183.44035 751.049935,9182.86079 750.545679,9182.29784 C750.338949,9182.06778 750.12257,9181.85128 749.864095,9181.68013 C749.347041,9181.33798 748.898187,9181.44271 748.602692,9181.9925 C748.301763,9182.55172 748.233462,9183.17089 748.203908,9183.79409 C748.163333,9184.70337 747.893736,9184.94245 746.997805,9184.98407 C745.083103,9185.07612 743.265952,9184.78082 741.577835,9183.79611 C740.089542,9182.92804 738.93549,9181.70249 737.930938,9180.31511 C735.975205,9177.61362 734.477416,9174.64504 733.13131,9171.59332 C732.8283,9170.90576 733.049908,9170.5367 733.794055,9170.5236 C735.029712,9170.49911 736.265216,9170.50087 737.502346,9170.52184 C738.004571,9170.52935 738.337035,9170.82298 738.530968,9171.30667 C739.199502,9172.9825 740.017535,9174.57691 741.044329,9176.05478 C741.317785,9176.44823 741.596624,9176.84173 741.993631,9177.11865 C742.432888,9177.42528 742.767332,9177.32365 742.97396,9176.8248 C743.105077,9176.50849 743.162511,9176.16779 743.192065,9175.82906 C743.289971,9174.66357 743.30287,9173.50005 743.131179,9172.33864 C743.025757,9171.61382 742.625297,9171.14458 741.915834,9171.00744 C741.553816,9170.9375 741.607694,9170.80015 741.782991,9170.5895 C742.087424,9170.22618 742.373778,9170 742.944609,9170 L747.225355,9170 C747.899272,9170.13558 748.048924,9170.44424 748.141193,9171.13552 L748.144849,9175.98308 C748.137486,9176.25067 748.275966,9177.04487 748.748789,9177.22198 C749.12721,9177.34809 749.376647,9177.03944 749.60374,9176.79483 C750.628655,9175.68587 751.360157,9174.37527 752.013659,9173.01817 C752.30367,9172.42142 752.553056,9171.80174 752.794724,9171.18252 C752.973778,9170.72307 753.25475,9170.49699 753.762409,9170.50698 L757.882382,9170.51071 C758.004561,9170.51071 758.128163,9170.51252 758.246483,9170.53318 C758.940711,9170.6538 759.130988,9170.95826 758.91654,9171.64938 C758.578693,9172.7337 757.921331,9173.63734 757.278595,9174.54512 C756.591526,9175.5143 755.856673,9176.45035 755.175342,9177.42528 C754.549313,9178.31572 754.599027,9178.76446 755.376639,9179.53774 C756.239105,9180.39619 757.149357,9181.20379 757.922905,9182.1488 Z" id="Shape"></path>
        </g>
    </g>
</svg>